RedHatText-MediumItalic.ufo
<glyph name="exclam" format="2">
  <advance width="240"/>
  <unicode hex="0021"/>
  <outline>
    <contour>
      <point x="68" y="215" type="line"/>
      <point x="151" y="215" type="line"/>
      <point x="275" y="730" type="line"/>
      <point x="166" y="730" type="line"/>
    </contour>
    <contour>
      <point x="70" y="-9" type="curve" smooth="yes"/>
      <point x="110" y="-9"/>
      <point x="146" y="27"/>
      <point x="146" y="69" type="curve" smooth="yes"/>
      <point x="146" y="104"/>
      <point x="121" y="131"/>
      <point x="87" y="131" type="curve" smooth="yes"/>
      <point x="45" y="131"/>
      <point x="10" y="95"/>
      <point x="10" y="52" type="curve" smooth="yes"/>
      <point x="10" y="17"/>
      <point x="35" y="-9"/>
    </contour>
  </outline>
</glyph>
<glyph name="numbersign" format="2">
  <advance width="702"/>
  <unicode hex="0023"/>
  <outline>
    <contour>
      <point x="-6" y="0" type="line"/>
      <point x="92" y="0" type="line"/>
      <point x="203" y="203" type="line"/>
      <point x="358" y="203" type="line"/>
      <point x="247" y="0" type="line"/>
      <point x="344" y="0" type="line"/>
      <point x="455" y="203" type="line"/>
      <point x="591" y="203" type="line"/>
      <point x="609" y="286" type="line"/>
      <point x="501" y="286" type="line"/>
      <point x="571" y="414" type="line"/>
      <point x="683" y="414" type="line"/>
      <point x="701" y="497" type="line"/>
      <point x="617" y="497" type="line"/>
      <point x="728" y="700" type="line"/>
      <point x="631" y="700" type="line"/>
      <point x="520" y="497" type="line"/>
      <point x="365" y="497" type="line"/>
      <point x="476" y="700" type="line"/>
      <point x="379" y="700" type="line"/>
      <point x="267" y="497" type="line"/>
      <point x="130" y="497" type="line"/>
      <point x="112" y="414" type="line"/>
      <point x="222" y="414" type="line"/>
      <point x="151" y="286" type="line"/>
      <point x="39" y="286" type="line"/>
      <point x="21" y="203" type="line"/>
      <point x="106" y="203" type="line"/>
    </contour>
    <contour>
      <point x="249" y="286" type="line"/>
      <point x="319" y="414" type="line"/>
      <point x="474" y="414" type="line"/>
      <point x="404" y="286" type="line"/>
    </contour>
  </outline>
</glyph>
<glyph name="dollar" format="2">
  <advance width="558"/>
  <unicode hex="0024"/>
  <outline>
    <contour>
      <point x="176" y="-75" type="line"/>
      <point x="232" y="-75" type="line"/>
      <point x="252" y="18" type="line"/>
      <point x="256" y="18" type="line" smooth="yes"/>
      <point x="407" y="18"/>
      <point x="508" y="104"/>
      <point x="508" y="232" type="curve"/>
      <point x="508" y="301"/>
      <point x="463" y="355"/>
      <point x="378" y="386" type="curve" smooth="yes"/>
      <point x="333" y="402" type="line"/>
      <point x="372" y="582" type="line"/>
      <point x="415" y="571"/>
      <point x="457" y="546"/>
      <point x="495" y="508" type="curve"/>
      <point x="563" y="584" type="line"/>
      <point x="515" y="631"/>
      <point x="455" y="663"/>
      <point x="392" y="677" type="curve"/>
      <point x="409" y="759" type="line"/>
      <point x="353" y="759" type="line"/>
      <point x="337" y="683" type="line"/>
      <point x="330" y="683" type="line" smooth="yes"/>
      <point x="180" y="683"/>
      <point x="88" y="607"/>
      <point x="88" y="483" type="curve"/>
      <point x="88" y="415"/>
      <point x="134" y="357"/>
      <point x="210" y="331" type="curve" smooth="yes"/>
      <point x="259" y="315" type="line"/>
      <point x="217" y="118" type="line"/>
      <point x="169" y="127"/>
      <point x="123" y="152"/>
      <point x="73" y="194" type="curve"/>
      <point x="10" y="113" type="line"/>
      <point x="67" y="64"/>
      <point x="129" y="34"/>
      <point x="197" y="23" type="curve"/>
    </contour>
    <contour>
      <point x="251" y="425" type="line" smooth="yes"/>
      <point x="212" y="439"/>
      <point x="190" y="465"/>
      <point x="190" y="498" type="curve" smooth="yes"/>
      <point x="190" y="554"/>
      <point x="238" y="590"/>
      <point x="314" y="590" type="curve" smooth="yes"/>
      <point x="317" y="590" type="line"/>
      <point x="280" y="415" type="line"/>
    </contour>
    <contour>
      <point x="333" y="292" type="line" smooth="yes"/>
      <point x="380" y="274"/>
      <point x="403" y="248"/>
      <point x="403" y="213" type="curve"/>
      <point x="403" y="153"/>
      <point x="352" y="115"/>
      <point x="272" y="113" type="curve"/>
      <point x="312" y="300" type="line"/>
    </contour>
  </outline>
</glyph>
<glyph name="ampersand" format="2">
  <advance width="668"/>
  <unicode hex="0026"/>
  <outline>
    <contour>
      <point x="612" y="65" type="line"/>
      <point x="586" y="87"/>
      <point x="558" y="112"/>
      <point x="531" y="139" type="curve"/>
      <point x="576" y="191"/>
      <point x="616" y="257"/>
      <point x="652" y="341" type="curve"/>
      <point x="558" y="365" type="line"/>
      <point x="531" y="301"/>
      <point x="501" y="248"/>
      <point x="467" y="205" type="curve"/>
      <point x="420" y="257"/>
      <point x="376" y="313"/>
      <point x="341" y="366" type="curve"/>
      <point x="397" y="394" type="line" smooth="yes"/>
      <point x="490" y="440"/>
      <point x="534" y="497"/>
      <point x="534" y="570" type="curve" smooth="yes"/>
      <point x="534" y="652"/>
      <point x="467" y="709"/>
      <point x="371" y="709" type="curve" smooth="yes"/>
      <point x="254" y="709"/>
      <point x="170" y="627"/>
      <point x="170" y="515" type="curve"/>
      <point x="170" y="474"/>
      <point x="180" y="436"/>
      <point x="203" y="392" type="curve"/>
      <point x="189" y="386" type="line" smooth="yes"/>
      <point x="71" y="331"/>
      <point x="18" y="265"/>
      <point x="18" y="172" type="curve"/>
      <point x="18" y="62"/>
      <point x="108" y="-10"/>
      <point x="246" y="-10" type="curve" smooth="yes"/>
      <point x="322" y="-10"/>
      <point x="393" y="14"/>
      <point x="455" y="61" type="curve"/>
      <point x="483" y="34"/>
      <point x="510" y="9"/>
      <point x="537" y="-13" type="curve"/>
    </contour>
    <contour>
      <point x="273" y="528" type="curve"/>
      <point x="273" y="584"/>
      <point x="309" y="623"/>
      <point x="361" y="623" type="curve" smooth="yes"/>
      <point x="404" y="623"/>
      <point x="431" y="597"/>
      <point x="431" y="558" type="curve" smooth="yes"/>
      <point x="431" y="519"/>
      <point x="405" y="487"/>
      <point x="353" y="461" type="curve" smooth="yes"/>
      <point x="301" y="436" type="line"/>
      <point x="281" y="472"/>
      <point x="273" y="499"/>
    </contour>
    <contour>
      <point x="124" y="188" type="curve"/>
      <point x="124" y="240"/>
      <point x="158" y="281"/>
      <point x="233" y="316" type="curve" smooth="yes"/>
      <point x="244" y="321" type="line"/>
      <point x="287" y="255"/>
      <point x="339" y="187"/>
      <point x="394" y="126" type="curve"/>
      <point x="350" y="96"/>
      <point x="306" y="81"/>
      <point x="258" y="81" type="curve" smooth="yes"/>
      <point x="177" y="81"/>
      <point x="124" y="123"/>
    </contour>
  </outline>
</glyph>
<glyph name="parenleft" format="2">
  <advance width="406"/>
  <unicode hex="0028"/>
  <outline>
    <contour>
      <point x="55" y="136" type="curve"/>
      <point x="55" y="-14"/>
      <point x="107" y="-136"/>
      <point x="208" y="-218" type="curve"/>
      <point x="281" y="-152" type="line"/>
      <point x="199" y="-81"/>
      <point x="156" y="21"/>
      <point x="156" y="147" type="curve"/>
      <point x="156" y="355"/>
      <point x="270" y="547"/>
      <point x="444" y="634" type="curve"/>
      <point x="400" y="711" type="line"/>
      <point x="189" y="609"/>
      <point x="55" y="385"/>
    </contour>
  </outline>
</glyph>
<glyph name="plus" format="2">
  <advance width="533"/>
  <unicode hex="002B"/>
  <outline>
    <contour>
      <point x="283" y="135" type="line"/>
      <point x="321" y="313" type="line"/>
      <point x="484" y="313" type="line"/>
      <point x="503" y="403" type="line"/>
      <point x="340" y="403" type="line"/>
      <point x="378" y="578" type="line"/>
      <point x="293" y="578" type="line"/>
      <point x="255" y="403" type="line"/>
      <point x="92" y="403" type="line"/>
      <point x="73" y="313" type="line"/>
      <point x="236" y="313" type="line"/>
      <point x="198" y="135" type="line"/>
    </contour>
  </outline>
</glyph>
<glyph name="period" format="2">
  <advance width="240"/>
  <unicode hex="002E"/>
  <outline>
    <contour>
      <point x="87" y="136" type="curve" smooth="yes"/>
      <point x="45" y="136"/>
      <point x="9" y="99"/>
      <point x="9" y="55" type="curve" smooth="yes"/>
      <point x="9" y="19"/>
      <point x="35" y="-9"/>
      <point x="70" y="-9" type="curve" smooth="yes"/>
      <point x="111" y="-9"/>
      <point x="147" y="29"/>
      <point x="147" y="72" type="curve" smooth="yes"/>
      <point x="147" y="108"/>
      <point x="121" y="136"/>
    </contour>
  </outline>
</glyph>
<glyph name="two" format="2">
  <advance width="559"/>
  <unicode hex="0032"/>
  <outline>
    <contour>
      <point x="-5" y="0" type="line"/>
      <point x="460" y="0" type="line"/>
      <point x="480" y="93" type="line"/>
      <point x="156" y="92" type="line"/>
      <point x="444" y="344" type="line" smooth="yes"/>
      <point x="524" y="414"/>
      <point x="557" y="473"/>
      <point x="557" y="545" type="curve"/>
      <point x="557" y="642"/>
      <point x="474" y="709"/>
      <point x="353" y="709" type="curve" smooth="yes"/>
      <point x="274" y="709"/>
      <point x="194" y="678"/>
      <point x="110" y="616" type="curve"/>
      <point x="155" y="538" type="line"/>
      <point x="227" y="592"/>
      <point x="278" y="614"/>
      <point x="333" y="614" type="curve" smooth="yes"/>
      <point x="403" y="614"/>
      <point x="450" y="578"/>
      <point x="450" y="527" type="curve"/>
      <point x="450" y="485"/>
      <point x="425" y="444"/>
      <point x="373" y="397" type="curve" smooth="yes"/>
      <point x="13" y="78" type="line"/>
    </contour>
  </outline>
</glyph>
<glyph name="four" format="2">
  <advance width="637"/>
  <unicode hex="0034"/>
  <outline>
    <contour>
      <point x="608" y="700" type="line"/>
      <point x="487" y="700" type="line"/>
      <point x="41" y="262" type="line"/>
      <point x="21" y="173" type="line"/>
      <point x="390" y="173" type="line"/>
      <point x="353" y="0" type="line"/>
      <point x="459" y="0" type="line"/>
      <point x="496" y="173" type="line"/>
      <point x="585" y="173" type="line"/>
      <point x="606" y="267" type="line"/>
      <point x="516" y="267" type="line"/>
    </contour>
    <contour>
      <point x="159" y="267" type="line"/>
      <point x="475" y="579" type="line"/>
      <point x="409" y="267" type="line"/>
    </contour>
  </outline>
</glyph>
<glyph name="five" format="2">
  <advance width="579"/>
  <unicode hex="0035"/>
  <note>
Version created Sun Jan 27 17:40:50 2019
</note>
  <outline>
    <contour>
      <point x="85" y="354" type="line"/>
      <point x="153" y="325" type="line"/>
      <point x="199" y="344"/>
      <point x="237" y="353"/>
      <point x="274" y="353" type="curve" smooth="yes"/>
      <point x="361" y="353"/>
      <point x="418" y="305"/>
      <point x="418" y="231" type="curve" smooth="yes"/>
      <point x="418" y="148"/>
      <point x="349" y="85"/>
      <point x="258" y="85" type="curve" smooth="yes"/>
      <point x="186" y="85"/>
      <point x="131" y="112"/>
      <point x="80" y="174" type="curve"/>
      <point x="3" y="104" type="line"/>
      <point x="60" y="31"/>
      <point x="148" y="-9"/>
      <point x="251" y="-9" type="curve" smooth="yes"/>
      <point x="406" y="-9"/>
      <point x="529" y="104"/>
      <point x="529" y="246" type="curve" smooth="yes"/>
      <point x="529" y="361"/>
      <point x="443" y="437"/>
      <point x="314" y="437" type="curve" smooth="yes"/>
      <point x="272" y="437"/>
      <point x="234" y="428"/>
      <point x="194" y="410" type="curve"/>
      <point x="244" y="606" type="line"/>
      <point x="571" y="606" type="line"/>
      <point x="591" y="700" type="line"/>
      <point x="172" y="700" type="line"/>
    </contour>
  </outline>
</glyph>
<glyph name="six" format="2">
  <advance width="624"/>
  <unicode hex="0036"/>
  <outline>
    <contour>
      <point x="306" y="-8" type="curve"/>
      <point x="450" y="-8"/>
      <point x="571" y="105"/>
      <point x="571" y="243" type="curve" smooth="yes"/>
      <point x="571" y="354"/>
      <point x="486" y="434"/>
      <point x="368" y="434" type="curve"/>
      <point x="299" y="434"/>
      <point x="230" y="402"/>
      <point x="175" y="343" type="curve"/>
      <point x="201" y="497"/>
      <point x="303" y="612"/>
      <point x="424" y="612" type="curve"/>
      <point x="478" y="612"/>
      <point x="524" y="595"/>
      <point x="561" y="561" type="curve"/>
      <point x="634" y="636" type="line"/>
      <point x="584" y="682"/>
      <point x="515" y="708"/>
      <point x="439" y="708" type="curve"/>
      <point x="233" y="708"/>
      <point x="62" y="507"/>
      <point x="62" y="267" type="curve" smooth="yes"/>
      <point x="62" y="99"/>
      <point x="158" y="-8"/>
    </contour>
    <contour>
      <point x="168" y="263" type="curve" smooth="yes"/>
      <point x="168" y="280" type="line"/>
      <point x="219" y="325"/>
      <point x="279" y="349"/>
      <point x="339" y="349" type="curve"/>
      <point x="412" y="349"/>
      <point x="465" y="299"/>
      <point x="465" y="229" type="curve" smooth="yes"/>
      <point x="465" y="151"/>
      <point x="397" y="86"/>
      <point x="313" y="86" type="curve"/>
      <point x="224" y="86"/>
      <point x="168" y="155"/>
    </contour>
  </outline>
</glyph>
<glyph name="eight" format="2">
  <advance width="613"/>
  <unicode hex="0038"/>
  <note>
Version created Tue Sep 18 15:49:42 2018
</note>
  <outline>
    <contour>
      <point x="278" y="-10" type="curve"/>
      <point x="430" y="-10"/>
      <point x="550" y="86"/>
      <point x="550" y="210" type="curve" smooth="yes"/>
      <point x="550" y="277"/>
      <point x="504" y="333"/>
      <point x="434" y="357" type="curve"/>
      <point x="526" y="381"/>
      <point x="594" y="453"/>
      <point x="594" y="535" type="curve" smooth="yes"/>
      <point x="594" y="637"/>
      <point x="504" y="710"/>
      <point x="379" y="710" type="curve"/>
      <point x="241" y="710"/>
      <point x="128" y="617"/>
      <point x="128" y="502" type="curve" smooth="yes"/>
      <point x="128" y="445"/>
      <point x="164" y="397"/>
      <point x="221" y="372" type="curve"/>
      <point x="116" y="351"/>
      <point x="37" y="269"/>
      <point x="37" y="174" type="curve" smooth="yes"/>
      <point x="37" y="66"/>
      <point x="135" y="-10"/>
    </contour>
    <contour>
      <point x="351" y="404" type="curve"/>
      <point x="283" y="404"/>
      <point x="233" y="446"/>
      <point x="233" y="503" type="curve"/>
      <point x="233" y="568"/>
      <point x="295" y="621"/>
      <point x="370" y="621" type="curve"/>
      <point x="437" y="621"/>
      <point x="487" y="579"/>
      <point x="487" y="522" type="curve"/>
      <point x="487" y="458"/>
      <point x="425" y="404"/>
    </contour>
    <contour>
      <point x="285" y="81" type="curve"/>
      <point x="204" y="81"/>
      <point x="147" y="128"/>
      <point x="147" y="193" type="curve"/>
      <point x="147" y="264"/>
      <point x="216" y="321"/>
      <point x="303" y="321" type="curve"/>
      <point x="384" y="321"/>
      <point x="443" y="274"/>
      <point x="443" y="210" type="curve"/>
      <point x="443" y="139"/>
      <point x="372" y="81"/>
    </contour>
  </outline>
</glyph>
<glyph name="question" format="2">
  <advance width="513"/>
  <unicode hex="003F"/>
  <outline>
    <contour>
      <point x="387" y="352" type="line" smooth="yes"/>
      <point x="486" y="411"/>
      <point x="528" y="470"/>
      <point x="528" y="547" type="curve" smooth="yes"/>
      <point x="528" y="643"/>
      <point x="447" y="708"/>
      <point x="331" y="708" type="curve"/>
      <point x="241" y="708"/>
      <point x="153" y="661"/>
      <point x="94" y="581" type="curve"/>
      <point x="169" y="533" type="line"/>
      <point x="207" y="582"/>
      <point x="261" y="611"/>
      <point x="316" y="611" type="curve" smooth="yes"/>
      <point x="378" y="611"/>
      <point x="420" y="579"/>
      <point x="420" y="531" type="curve"/>
      <point x="420" y="494"/>
      <point x="394" y="458"/>
      <point x="346" y="428" type="curve" smooth="yes"/>
      <point x="286" y="391" type="line" smooth="yes"/>
      <point x="217" y="351"/>
      <point x="187" y="304"/>
      <point x="173" y="217" type="curve"/>
      <point x="264" y="217" type="line"/>
      <point x="273" y="269"/>
      <point x="293" y="298"/>
      <point x="342" y="326" type="curve" smooth="yes"/>
    </contour>
    <contour>
      <point x="198" y="131" type="curve" smooth="yes"/>
      <point x="157" y="131"/>
      <point x="121" y="95"/>
      <point x="121" y="52" type="curve" smooth="yes"/>
      <point x="121" y="17"/>
      <point x="147" y="-9"/>
      <point x="182" y="-9" type="curve" smooth="yes"/>
      <point x="222" y="-9"/>
      <point x="258" y="27"/>
      <point x="258" y="69" type="curve" smooth="yes"/>
      <point x="258" y="104"/>
      <point x="233" y="131"/>
    </contour>
  </outline>
</glyph>
<glyph name="A" format="2">
  <advance width="683"/>
  <unicode hex="0041"/>
  <anchor x="429" y="700" name="top"/>
  <anchor x="623" y="0" name="bottom"/>
  <outline>
    <contour>
      <point x="-48" y="0" type="line"/>
      <point x="81" y="0" type="line"/>
      <point x="192" y="196" type="line"/>
      <point x="472" y="196" type="line"/>
      <point x="502" y="0" type="line"/>
      <point x="623" y="0" type="line"/>
      <point x="503" y="700" type="line"/>
      <point x="366" y="700" type="line"/>
    </contour>
    <contour>
      <point x="245" y="290" type="line"/>
      <point x="412" y="587" type="line"/>
      <point x="458" y="290" type="line"/>
    </contour>
  </outline>
</glyph>
<glyph name="B" format="2">
  <advance width="683"/>
  <unicode hex="0042"/>
  <outline>
    <contour>
      <point x="177" y="700" type="line"/>
      <point x="28" y="0" type="line"/>
      <point x="367" y="0" type="line"/>
      <point x="510" y="0"/>
      <point x="620" y="94"/>
      <point x="620" y="216" type="curve" smooth="yes"/>
      <point x="620" y="282"/>
      <point x="581" y="332"/>
      <point x="516" y="357" type="curve"/>
      <point x="600" y="387"/>
      <point x="656" y="456"/>
      <point x="656" y="540" type="curve" smooth="yes"/>
      <point x="656" y="637"/>
      <point x="580" y="700"/>
      <point x="462" y="700" type="curve"/>
    </contour>
    <contour>
      <point x="438" y="602" type="line"/>
      <point x="499" y="602"/>
      <point x="536" y="570"/>
      <point x="536" y="518" type="curve" smooth="yes"/>
      <point x="536" y="452"/>
      <point x="484" y="406"/>
      <point x="410" y="406" type="curve"/>
      <point x="231" y="406" type="line"/>
      <point x="273" y="602" type="line"/>
    </contour>
    <contour>
      <point x="364" y="98" type="curve"/>
      <point x="166" y="98" type="line"/>
      <point x="212" y="313" type="line"/>
      <point x="394" y="313" type="line"/>
      <point x="461" y="313"/>
      <point x="502" y="278"/>
      <point x="502" y="221" type="curve" smooth="yes"/>
      <point x="502" y="149"/>
      <point x="445" y="98"/>
    </contour>
  </outline>
</glyph>
<glyph name="C" format="2">
  <advance width="712"/>
  <unicode hex="0043"/>
  <anchor x="447" y="700" name="top"/>
  <anchor x="376" y="0" name="bottom"/>
  <outline>
    <contour>
      <point x="410" y="97" type="curve"/>
      <point x="284" y="97"/>
      <point x="191" y="194"/>
      <point x="191" y="327" type="curve" smooth="yes"/>
      <point x="191" y="480"/>
      <point x="302" y="603"/>
      <point x="442" y="603" type="curve" smooth="yes"/>
      <point x="521" y="603"/>
      <point x="587" y="566"/>
      <point x="626" y="499" type="curve"/>
      <point x="717" y="575" type="line"/>
      <point x="660" y="663"/>
      <point x="566" y="709"/>
      <point x="448" y="709" type="curve" smooth="yes"/>
      <point x="241" y="709"/>
      <point x="70" y="535"/>
      <point x="70" y="321" type="curve" smooth="yes"/>
      <point x="70" y="133"/>
      <point x="212" y="-10"/>
      <point x="398" y="-10" type="curve"/>
      <point x="494" y="-10"/>
      <point x="592" y="31"/>
      <point x="665" y="103" type="curve"/>
      <point x="601" y="182" type="line"/>
      <point x="547" y="127"/>
      <point x="479" y="97"/>
    </contour>
  </outline>
</glyph>
<glyph name="H" format="2">
  <advance width="731"/>
  <unicode hex="0048"/>
  <anchor x="461" y="700" name="top"/>
  <outline>
    <contour>
      <point x="23" y="0" type="line"/>
      <point x="140" y="0" type="line"/>
      <point x="204" y="300" type="line"/>
      <point x="546" y="300" type="line"/>
      <point x="482" y="0" type="line"/>
      <point x="599" y="0" type="line"/>
      <point x="748" y="700" type="line"/>
      <point x="631" y="700" type="line"/>
      <point x="568" y="405" type="line"/>
      <point x="226" y="405" type="line"/>
      <point x="289" y="700" type="line"/>
      <point x="172" y="700" type="line"/>
    </contour>
  </outline>
</glyph>
<glyph name="I" format="2">
  <advance width="272"/>
  <unicode hex="0049"/>
  <anchor x="230" y="700" name="top"/>
  <anchor x="140" y="0" name="bottom"/>
  <outline>
    <contour>
      <point x="22" y="0" type="line"/>
      <point x="140" y="0" type="line"/>
      <point x="289" y="700" type="line"/>
      <point x="171" y="700" type="line"/>
    </contour>
  </outline>
</glyph>
<glyph name="K" format="2">
  <advance width="654"/>
  <unicode hex="004B"/>
  <anchor x="300" y="0" name="bottom"/>
  <outline>
    <contour>
      <point x="28" y="0" type="line"/>
      <point x="145" y="0" type="line"/>
      <point x="216" y="335" type="line"/>
      <point x="448" y="0" type="line"/>
      <point x="595" y="0" type="line"/>
      <point x="337" y="360" type="line"/>
      <point x="739" y="700" type="line"/>
      <point x="587" y="700" type="line"/>
      <point x="228" y="390" type="line"/>
      <point x="294" y="700" type="line"/>
      <point x="177" y="700" type="line"/>
    </contour>
  </outline>
</glyph>
<glyph name="L" format="2">
  <advance width="614"/>
  <unicode hex="004C"/>
  <anchor x="235" y="700" name="top"/>
  <anchor x="289" y="0" name="bottom"/>
  <outline>
    <contour>
      <point x="28" y="0" type="line"/>
      <point x="511" y="0" type="line"/>
      <point x="533" y="104" type="line"/>
      <point x="167" y="104" type="line"/>
      <point x="294" y="700" type="line"/>
      <point x="177" y="700" type="line"/>
    </contour>
  </outline>
</glyph>
<glyph name="M" format="2">
  <advance width="872"/>
  <unicode hex="004D"/>
  <outline>
    <contour>
      <point x="395" y="50" type="line"/>
      <point x="741" y="544" type="line"/>
      <point x="626" y="0" type="line"/>
      <point x="735" y="0" type="line"/>
      <point x="884" y="700" type="line"/>
      <point x="726" y="700" type="line"/>
      <point x="438" y="275" type="line"/>
      <point x="326" y="700" type="line"/>
      <point x="177" y="700" type="line"/>
      <point x="28" y="0" type="line"/>
      <point x="139" y="0" type="line"/>
      <point x="256" y="552" type="line"/>
    </contour>
  </outline>
</glyph>
<glyph name="Q" format="2">
  <advance width="795"/>
  <unicode hex="0051"/>
  <outline>
    <contour>
      <point x="765" y="380" type="curve" smooth="yes"/>
      <point x="765" y="569"/>
      <point x="627" y="711"/>
      <point x="443" y="711" type="curve" smooth="yes"/>
      <point x="239" y="711"/>
      <point x="70" y="534"/>
      <point x="70" y="320" type="curve" smooth="yes"/>
      <point x="70" y="131"/>
      <point x="208" y="-11"/>
      <point x="392" y="-11" type="curve" smooth="yes"/>
      <point x="446" y="-11"/>
      <point x="497" y="1"/>
      <point x="543" y="23" type="curve"/>
      <point x="585" y="-43" type="line"/>
      <point x="674" y="0" type="line"/>
      <point x="626" y="76" type="line"/>
      <point x="710" y="148"/>
      <point x="765" y="258"/>
    </contour>
    <contour>
      <point x="509" y="260" type="line"/>
      <point x="421" y="217" type="line"/>
      <point x="486" y="114" type="line"/>
      <point x="459" y="103"/>
      <point x="430" y="97"/>
      <point x="400" y="97" type="curve" smooth="yes"/>
      <point x="279" y="97"/>
      <point x="190" y="195"/>
      <point x="190" y="327" type="curve" smooth="yes"/>
      <point x="190" y="479"/>
      <point x="300" y="604"/>
      <point x="436" y="604" type="curve" smooth="yes"/>
      <point x="556" y="604"/>
      <point x="645" y="506"/>
      <point x="645" y="373" type="curve" smooth="yes"/>
      <point x="645" y="293"/>
      <point x="615" y="220"/>
      <point x="566" y="170" type="curve"/>
    </contour>
  </outline>
</glyph>
<glyph name="R" format="2">
  <advance width="659"/>
  <unicode hex="0052"/>
  <anchor x="415" y="700" name="top"/>
  <anchor x="274" y="0" name="bottom"/>
  <outline>
    <contour>
      <point x="28" y="0" type="line"/>
      <point x="145" y="0" type="line"/>
      <point x="205" y="281" type="line"/>
      <point x="367" y="281" type="line"/>
      <point x="454" y="0" type="line"/>
      <point x="578" y="0" type="line"/>
      <point x="482" y="288" type="line"/>
      <point x="590" y="313"/>
      <point x="667" y="402"/>
      <point x="667" y="511" type="curve" smooth="yes"/>
      <point x="667" y="625"/>
      <point x="585" y="700"/>
      <point x="461" y="700" type="curve" smooth="yes"/>
      <point x="177" y="700" type="line"/>
    </contour>
    <contour>
      <point x="441" y="599" type="line" smooth="yes"/>
      <point x="506" y="599"/>
      <point x="548" y="562"/>
      <point x="548" y="502" type="curve" smooth="yes"/>
      <point x="548" y="429"/>
      <point x="491" y="377"/>
      <point x="412" y="377" type="curve" smooth="yes"/>
      <point x="225" y="377" type="line"/>
      <point x="273" y="599" type="line"/>
    </contour>
  </outline>
</glyph>
<glyph name="T" format="2">
  <advance width="626"/>
  <unicode hex="0054"/>
  <anchor x="407" y="700" name="top"/>
  <anchor x="258" y="0" name="bottom"/>
  <outline>
    <contour>
      <point x="96" y="596" type="line"/>
      <point x="326" y="596" type="line"/>
      <point x="199" y="0" type="line"/>
      <point x="317" y="0" type="line"/>
      <point x="444" y="596" type="line"/>
      <point x="672" y="596" type="line"/>
      <point x="695" y="700" type="line"/>
      <point x="119" y="700" type="line"/>
    </contour>
  </outline>
</glyph>
<glyph name="W" format="2">
  <advance width="918"/>
  <unicode hex="0057"/>
  <anchor x="550" y="700" name="top"/>
  <outline>
    <contour>
      <point x="254" y="0" type="line"/>
      <point x="516" y="531" type="line"/>
      <point x="554" y="0" type="line"/>
      <point x="677" y="0" type="line"/>
      <point x="976" y="700" type="line"/>
      <point x="856" y="700" type="line"/>
      <point x="645" y="187" type="line"/>
      <point x="607" y="700" type="line"/>
      <point x="495" y="700" type="line"/>
      <point x="239" y="185" type="line"/>
      <point x="246" y="700" type="line"/>
      <point x="130" y="700" type="line"/>
      <point x="132" y="0" type="line"/>
    </contour>
  </outline>
</glyph>
<glyph name="Z" format="2">
  <advance width="600"/>
  <unicode hex="005A"/>
  <anchor x="371" y="700" name="top"/>
  <outline>
    <contour>
      <point x="-21" y="0" type="line"/>
      <point x="518" y="0" type="line"/>
      <point x="540" y="102" type="line"/>
      <point x="157" y="99" type="line"/>
      <point x="643" y="620" type="line"/>
      <point x="661" y="700" type="line"/>
      <point x="130" y="700" type="line"/>
      <point x="107" y="598" type="line"/>
      <point x="482" y="601" type="line"/>
      <point x="-4" y="80" type="line"/>
    </contour>
  </outline>
</glyph>
<glyph name="grave" format="2">
  <advance width="512"/>
  <unicode hex="0060"/>
  <anchor x="320" y="501" name="_top"/>
  <outline>
    <contour>
      <point x="269" y="724" type="line"/>
      <point x="127" y="724" type="line"/>
      <point x="290" y="591" type="line"/>
      <point x="391" y="591" type="line"/>
    </contour>
  </outline>
</glyph>
<glyph name="b" format="2">
  <advance width="598"/>
  <unicode hex="0062"/>
  <outline>
    <contour>
      <point x="552" y="277" type="curve" smooth="yes"/>
      <point x="552" y="405"/>
      <point x="468" y="504"/>
      <point x="358" y="504" type="curve" smooth="yes"/>
      <point x="304" y="504"/>
      <point x="255" y="483"/>
      <point x="219" y="446" type="curve"/>
      <point x="279" y="734" type="line"/>
      <point x="165" y="715" type="line"/>
      <point x="14" y="0" type="line"/>
      <point x="124" y="0" type="line"/>
      <point x="142" y="81" type="line"/>
      <point x="174" y="25"/>
      <point x="228" y="-6"/>
      <point x="296" y="-6" type="curve" smooth="yes"/>
      <point x="437" y="-6"/>
      <point x="552" y="121"/>
    </contour>
    <contour>
      <point x="312" y="410" type="curve" smooth="yes"/>
      <point x="389" y="410"/>
      <point x="443" y="351"/>
      <point x="443" y="267" type="curve" smooth="yes"/>
      <point x="443" y="168"/>
      <point x="372" y="90"/>
      <point x="279" y="90" type="curve" smooth="yes"/>
      <point x="229" y="90"/>
      <point x="183" y="116"/>
      <point x="159" y="156" type="curve"/>
      <point x="202" y="363" type="line"/>
      <point x="234" y="394"/>
      <point x="271" y="410"/>
    </contour>
  </outline>
</glyph>
<glyph name="c" format="2">
  <advance width="511"/>
  <unicode hex="0063"/>
  <anchor x="317" y="501" name="top"/>
  <anchor x="263" y="0" name="bottom"/>
  <outline>
    <contour>
      <point x="285" y="89" type="curve" smooth="yes"/>
      <point x="210" y="89"/>
      <point x="156" y="145"/>
      <point x="156" y="226" type="curve" smooth="yes"/>
      <point x="156" y="325"/>
      <point x="228" y="408"/>
      <point x="315" y="408" type="curve" smooth="yes"/>
      <point x="367" y="408"/>
      <point x="408" y="386"/>
      <point x="436" y="341" type="curve"/>
      <point x="516" y="407" type="line"/>
      <point x="475" y="470"/>
      <point x="400" y="508"/>
      <point x="318" y="508" type="curve" smooth="yes"/>
      <point x="168" y="508"/>
      <point x="45" y="377"/>
      <point x="45" y="217" type="curve" smooth="yes"/>
      <point x="45" y="86"/>
      <point x="139" y="-10"/>
      <point x="267" y="-10" type="curve" smooth="yes"/>
      <point x="336" y="-10"/>
      <point x="403" y="15"/>
      <point x="455" y="63" type="curve"/>
      <point x="401" y="134" type="line"/>
      <point x="368" y="104"/>
      <point x="328" y="89"/>
    </contour>
  </outline>
</glyph>
<glyph name="d" format="2">
  <advance width="598"/>
  <unicode hex="0064"/>
  <outline>
    <contour>
      <point x="364" y="0" type="line"/>
      <point x="474" y="0" type="line"/>
      <point x="628" y="734" type="line"/>
      <point x="513" y="715" type="line"/>
      <point x="453" y="428" type="line"/>
      <point x="420" y="478"/>
      <point x="367" y="505"/>
      <point x="302" y="505" type="curve" smooth="yes"/>
      <point x="161" y="505"/>
      <point x="46" y="378"/>
      <point x="46" y="223" type="curve" smooth="yes"/>
      <point x="46" y="94"/>
      <point x="130" y="-5"/>
      <point x="241" y="-5" type="curve" smooth="yes"/>
      <point x="292" y="-5"/>
      <point x="339" y="14"/>
      <point x="374" y="48" type="curve"/>
    </contour>
    <contour>
      <point x="156" y="232" type="curve" smooth="yes"/>
      <point x="156" y="332"/>
      <point x="227" y="409"/>
      <point x="319" y="409" type="curve" smooth="yes"/>
      <point x="367" y="409"/>
      <point x="412" y="387"/>
      <point x="437" y="351" type="curve"/>
      <point x="391" y="131" type="line"/>
      <point x="360" y="103"/>
      <point x="325" y="89"/>
      <point x="286" y="89" type="curve" smooth="yes"/>
      <point x="210" y="89"/>
      <point x="156" y="148"/>
    </contour>
  </outline>
</glyph>
<glyph name="e" format="2">
  <advance width="562"/>
  <unicode hex="0065"/>
  <anchor x="309" y="501" name="top"/>
  <anchor x="359" y="0" name="bottom"/>
  <outline>
    <contour>
      <point x="465" y="51" type="curve"/>
      <point x="404" y="125" type="line"/>
      <point x="375" y="98"/>
      <point x="333" y="84"/>
      <point x="290" y="84" type="curve" smooth="yes"/>
      <point x="212" y="84"/>
      <point x="155" y="142"/>
      <point x="153" y="223" type="curve"/>
      <point x="514" y="223" type="line"/>
      <point x="517" y="243"/>
      <point x="518" y="262"/>
      <point x="518" y="287" type="curve" smooth="yes"/>
      <point x="518" y="417"/>
      <point x="433" y="508"/>
      <point x="309" y="508" type="curve" smooth="yes"/>
      <point x="164" y="508"/>
      <point x="45" y="379"/>
      <point x="45" y="223" type="curve" smooth="yes"/>
      <point x="45" y="86"/>
      <point x="143" y="-10"/>
      <point x="281" y="-10" type="curve" smooth="yes"/>
      <point x="348" y="-10"/>
      <point x="404" y="8"/>
    </contour>
    <contour>
      <point x="303" y="415" type="curve" smooth="yes"/>
      <point x="367" y="415"/>
      <point x="413" y="365"/>
      <point x="418" y="292" type="curve"/>
      <point x="162" y="292" type="line"/>
      <point x="182" y="365"/>
      <point x="236" y="415"/>
    </contour>
  </outline>
</glyph>
<glyph name="g" format="2">
  <advance width="593"/>
  <unicode hex="0067"/>
  <note>
Version created Sun Jan 13 16:53:00 2019
</note>
  <anchor x="334" y="500" name="top"/>
  <outline>
    <contour>
      <point x="241" y="-3" type="curve" smooth="yes"/>
      <point x="292" y="-3"/>
      <point x="339" y="16"/>
      <point x="375" y="50" type="curve"/>
      <point x="358" y="-31" type="line" smooth="yes"/>
      <point x="345" y="-95"/>
      <point x="302" y="-129"/>
      <point x="236" y="-129" type="curve" smooth="yes"/>
      <point x="182" y="-129"/>
      <point x="125" y="-109"/>
      <point x="68" y="-68" type="curve"/>
      <point x="17" y="-147" type="line"/>
      <point x="77" y="-192"/>
      <point x="164" y="-220"/>
      <point x="241" y="-220" type="curve" smooth="yes"/>
      <point x="362" y="-220"/>
      <point x="441" y="-158"/>
      <point x="466" y="-43" type="curve" smooth="yes"/>
      <point x="579" y="501" type="line"/>
      <point x="470" y="501" type="line"/>
      <point x="454" y="428" type="line"/>
      <point x="421" y="477"/>
      <point x="368" y="505"/>
      <point x="302" y="505" type="curve" smooth="yes"/>
      <point x="162" y="505"/>
      <point x="47" y="379"/>
      <point x="47" y="224" type="curve" smooth="yes"/>
      <point x="47" y="95"/>
      <point x="130" y="-3"/>
    </contour>
    <contour>
      <point x="157" y="233" type="curve" smooth="yes"/>
      <point x="157" y="333"/>
      <point x="228" y="409"/>
      <point x="319" y="409" type="curve" smooth="yes"/>
      <point x="368" y="409"/>
      <point x="412" y="387"/>
      <point x="438" y="351" type="curve"/>
      <point x="392" y="132" type="line"/>
      <point x="361" y="104"/>
      <point x="326" y="90"/>
      <point x="287" y="90" type="curve" smooth="yes"/>
      <point x="210" y="90"/>
      <point x="157" y="149"/>
    </contour>
  </outline>
</glyph>
<glyph name="h" format="2">
  <advance width="571"/>
  <unicode hex="0068"/>
  <anchor x="214" y="699" name="top"/>
  <outline>
    <contour>
      <point x="14" y="0" type="line"/>
      <point x="126" y="0" type="line"/>
      <point x="201" y="360" type="line"/>
      <point x="235" y="399"/>
      <point x="274" y="418"/>
      <point x="316" y="418" type="curve" smooth="yes"/>
      <point x="385" y="418"/>
      <point x="419" y="366"/>
      <point x="403" y="291" type="curve" smooth="yes"/>
      <point x="340" y="0" type="line"/>
      <point x="451" y="0" type="line"/>
      <point x="519" y="317" type="line" smooth="yes"/>
      <point x="543" y="428"/>
      <point x="486" y="507"/>
      <point x="379" y="507" type="curve" smooth="yes"/>
      <point x="317" y="507"/>
      <point x="261" y="478"/>
      <point x="214" y="420" type="curve"/>
      <point x="279" y="734" type="line"/>
      <point x="163" y="715" type="line"/>
    </contour>
  </outline>
</glyph>
<glyph name="k" format="2">
  <advance width="525"/>
  <unicode hex="006B"/>
  <anchor x="227" y="0" name="bottom"/>
  <outline>
    <contour>
      <point x="14" y="0" type="line"/>
      <point x="126" y="0" type="line"/>
      <point x="174" y="228" type="line"/>
      <point x="336" y="0" type="line"/>
      <point x="468" y="0" type="line"/>
      <point x="280" y="252" type="line"/>
      <point x="568" y="501" type="line"/>
      <point x="428" y="501" type="line"/>
      <point x="185" y="283" type="line"/>
      <point x="279" y="734" type="line"/>
      <point x="165" y="715" type="line"/>
    </contour>
  </outline>
</glyph>
<glyph name="l" format="2">
  <advance width="249"/>
  <unicode hex="006C"/>
  <anchor x="217" y="700" name="top"/>
  <anchor x="69" y="0" name="bottom"/>
  <outline>
    <contour>
      <point x="279" y="734" type="line"/>
      <point x="165" y="715" type="line"/>
      <point x="14" y="0" type="line"/>
      <point x="126" y="0" type="line"/>
    </contour>
  </outline>
</glyph>
<glyph name="m" format="2">
  <advance width="858"/>
  <unicode hex="006D"/>
  <outline>
    <contour>
      <point x="14" y="0" type="line"/>
      <point x="126" y="0" type="line"/>
      <point x="205" y="362" type="line"/>
      <point x="239" y="400"/>
      <point x="271" y="418"/>
      <point x="308" y="418" type="curve" smooth="yes"/>
      <point x="369" y="418"/>
      <point x="400" y="370"/>
      <point x="385" y="298" type="curve" smooth="yes"/>
      <point x="321" y="0" type="line"/>
      <point x="432" y="0" type="line"/>
      <point x="500" y="318" type="line" smooth="yes"/>
      <point x="503" y="330"/>
      <point x="504" y="342"/>
      <point x="505" y="354" type="curve"/>
      <point x="542" y="398"/>
      <point x="577" y="418"/>
      <point x="615" y="418" type="curve" smooth="yes"/>
      <point x="675" y="418"/>
      <point x="706" y="370"/>
      <point x="692" y="302" type="curve" smooth="yes"/>
      <point x="627" y="0" type="line"/>
      <point x="739" y="0" type="line"/>
      <point x="806" y="318" type="line" smooth="yes"/>
      <point x="830" y="427"/>
      <point x="777" y="507"/>
      <point x="681" y="507" type="curve" smooth="yes"/>
      <point x="615" y="507"/>
      <point x="554" y="472"/>
      <point x="501" y="403" type="curve"/>
      <point x="488" y="466"/>
      <point x="440" y="507"/>
      <point x="372" y="507" type="curve" smooth="yes"/>
      <point x="316" y="507"/>
      <point x="264" y="477"/>
      <point x="217" y="416" type="curve"/>
      <point x="235" y="501" type="line"/>
      <point x="123" y="501" type="line"/>
    </contour>
  </outline>
</glyph>
<glyph name="q" format="2">
  <advance width="598"/>
  <unicode hex="0071"/>
  <outline>
    <contour>
      <point x="241" y="-5" type="curve" smooth="yes"/>
      <point x="292" y="-5"/>
      <point x="339" y="14"/>
      <point x="374" y="47" type="curve"/>
      <point x="318" y="-212" type="line"/>
      <point x="430" y="-212" type="line"/>
      <point x="583" y="501" type="line"/>
      <point x="473" y="501" type="line"/>
      <point x="456" y="422" type="line"/>
      <point x="423" y="476"/>
      <point x="369" y="505"/>
      <point x="302" y="505" type="curve" smooth="yes"/>
      <point x="161" y="505"/>
      <point x="46" y="378"/>
      <point x="46" y="223" type="curve" smooth="yes"/>
      <point x="46" y="94"/>
      <point x="130" y="-5"/>
    </contour>
    <contour>
      <point x="156" y="232" type="curve" smooth="yes"/>
      <point x="156" y="332"/>
      <point x="227" y="409"/>
      <point x="319" y="409" type="curve" smooth="yes"/>
      <point x="369" y="409"/>
      <point x="414" y="385"/>
      <point x="439" y="347" type="curve"/>
      <point x="392" y="132" type="line"/>
      <point x="361" y="103"/>
      <point x="325" y="89"/>
      <point x="286" y="89" type="curve" smooth="yes"/>
      <point x="210" y="89"/>
      <point x="156" y="148"/>
    </contour>
  </outline>
</glyph>
<glyph name="u" format="2">
  <advance width="570"/>
  <unicode hex="0075"/>
  <anchor x="324" y="501" name="top"/>
  <anchor x="447" y="0" name="bottom"/>
  <outline>
    <contour>
      <point x="230" y="501" type="line"/>
      <point x="119" y="501" type="line"/>
      <point x="51" y="184" type="line" smooth="yes"/>
      <point x="27" y="74"/>
      <point x="86" y="-6"/>
      <point x="191" y="-6" type="curve" smooth="yes"/>
      <point x="252" y="-6"/>
      <point x="306" y="22"/>
      <point x="352" y="76" type="curve"/>
      <point x="336" y="0" type="line"/>
      <point x="447" y="0" type="line"/>
      <point x="556" y="501" type="line"/>
      <point x="444" y="501" type="line"/>
      <point x="366" y="138" type="line"/>
      <point x="333" y="101"/>
      <point x="295" y="83"/>
      <point x="254" y="83" type="curve" smooth="yes"/>
      <point x="185" y="83"/>
      <point x="150" y="134"/>
      <point x="167" y="210" type="curve" smooth="yes"/>
    </contour>
  </outline>
</glyph>
<glyph name="w" format="2">
  <advance width="722"/>
  <unicode hex="0077"/>
  <anchor x="412" y="501" name="top"/>
  <outline>
    <contour>
      <point x="209" y="0" type="line"/>
      <point x="383" y="353" type="line"/>
      <point x="406" y="0" type="line"/>
      <point x="513" y="0" type="line"/>
      <point x="754" y="501" type="line"/>
      <point x="648" y="501" type="line"/>
      <point x="488" y="147" type="line"/>
      <point x="462" y="501" type="line"/>
      <point x="368" y="501" type="line"/>
      <point x="192" y="147" type="line"/>
      <point x="181" y="501" type="line"/>
      <point x="77" y="501" type="line"/>
      <point x="102" y="0" type="line"/>
    </contour>
  </outline>
</glyph>
<glyph name="y" format="2">
  <advance width="527"/>
  <unicode hex="0079"/>
  <anchor x="309" y="501" name="top"/>
  <outline>
    <contour>
      <point x="113" y="-59" type="line" smooth="yes"/>
      <point x="92" y="-95"/>
      <point x="64" y="-111"/>
      <point x="22" y="-111" type="curve" smooth="yes"/>
      <point x="11" y="-111"/>
      <point x="-4" y="-109"/>
      <point x="-23" y="-105" type="curve"/>
      <point x="-43" y="-201" type="line"/>
      <point x="-14" y="-209"/>
      <point x="7" y="-212"/>
      <point x="27" y="-212" type="curve" smooth="yes"/>
      <point x="108" y="-212"/>
      <point x="166" y="-175"/>
      <point x="217" y="-90" type="curve" smooth="yes"/>
      <point x="570" y="501" type="line"/>
      <point x="448" y="501" type="line"/>
      <point x="229" y="121" type="line"/>
      <point x="179" y="501" type="line"/>
      <point x="63" y="501" type="line"/>
      <point x="143" y="-7" type="line"/>
    </contour>
  </outline>
</glyph>
<glyph name="cent" format="2">
  <advance width="519"/>
  <unicode hex="00A2"/>
  <outline>
    <contour>
      <point x="187" y="-114" type="line"/>
      <point x="242" y="-114" type="line"/>
      <point x="264" y="-10" type="line"/>
      <point x="267" y="-10" type="line" smooth="yes"/>
      <point x="336" y="-10"/>
      <point x="403" y="15"/>
      <point x="455" y="63" type="curve"/>
      <point x="401" y="134" type="line"/>
      <point x="368" y="104"/>
      <point x="328" y="89"/>
      <point x="285" y="89" type="curve"/>
      <point x="352" y="404" type="line"/>
      <point x="387" y="396"/>
      <point x="415" y="375"/>
      <point x="436" y="341" type="curve"/>
      <point x="516" y="407" type="line"/>
      <point x="484" y="456"/>
      <point x="433" y="489"/>
      <point x="373" y="502" type="curve"/>
      <point x="397" y="616" type="line"/>
      <point x="342" y="616" type="line"/>
      <point x="319" y="508" type="line"/>
      <point x="318" y="508" type="line" smooth="yes"/>
      <point x="168" y="508"/>
      <point x="45" y="377"/>
      <point x="45" y="217" type="curve" smooth="yes"/>
      <point x="45" y="106"/>
      <point x="112" y="20"/>
      <point x="210" y="-3" type="curve"/>
    </contour>
    <contour>
      <point x="156" y="226" type="curve" smooth="yes"/>
      <point x="156" y="318"/>
      <point x="219" y="397"/>
      <point x="298" y="407" type="curve"/>
      <point x="232" y="99" type="line"/>
      <point x="186" y="119"/>
      <point x="156" y="166"/>
    </contour>
  </outline>
</glyph>
<glyph name="sterling" format="2">
  <advance width="629"/>
  <unicode hex="00A3"/>
  <outline>
    <contour>
      <point x="182" y="30" type="curve" smooth="yes"/>
      <point x="335" y="-18" type="line" smooth="yes"/>
      <point x="436" y="-51"/>
      <point x="511" y="-28"/>
      <point x="578" y="56" type="curve"/>
      <point x="506" y="113" type="line"/>
      <point x="467" y="65"/>
      <point x="427" y="52"/>
      <point x="372" y="69" type="curve" smooth="yes"/>
      <point x="218" y="116" type="line"/>
      <point x="249" y="142"/>
      <point x="266" y="182"/>
      <point x="267" y="233" type="curve" smooth="yes"/>
      <point x="268" y="295" type="line"/>
      <point x="435" y="295" type="line"/>
      <point x="451" y="373" type="line"/>
      <point x="270" y="373" type="line"/>
      <point x="272" y="455" type="line" smooth="yes"/>
      <point x="273" y="553"/>
      <point x="321" y="613"/>
      <point x="399" y="613" type="curve"/>
      <point x="476" y="613"/>
      <point x="519" y="572"/>
      <point x="527" y="487" type="curve"/>
      <point x="627" y="512" type="line"/>
      <point x="611" y="639"/>
      <point x="531" y="707"/>
      <point x="402" y="707" type="curve"/>
      <point x="263" y="707"/>
      <point x="168" y="600"/>
      <point x="168" y="444" type="curve" smooth="yes"/>
      <point x="166" y="373" type="line"/>
      <point x="82" y="373" type="line"/>
      <point x="65" y="295" type="line"/>
      <point x="164" y="295" type="line"/>
      <point x="161" y="204" type="line" smooth="yes"/>
      <point x="160" y="170"/>
      <point x="148" y="145"/>
      <point x="127" y="132" type="curve"/>
      <point x="67" y="130"/>
      <point x="16" y="100"/>
      <point x="-30" y="41" type="curve"/>
      <point x="42" y="-20" type="line"/>
      <point x="82" y="33"/>
      <point x="124" y="48"/>
    </contour>
  </outline>
</glyph>
<glyph name="uni00A4" format="2">
  <advance width="703"/>
  <unicode hex="00A4"/>
  <outline>
    <contour>
      <point x="100" y="53" type="line"/>
      <point x="194" y="148" type="line"/>
      <point x="238" y="117"/>
      <point x="293" y="98"/>
      <point x="352" y="98" type="curve" smooth="yes"/>
      <point x="411" y="98"/>
      <point x="464" y="116"/>
      <point x="508" y="148" type="curve"/>
      <point x="604" y="52" type="line"/>
      <point x="660" y="109" type="line"/>
      <point x="566" y="204" type="line"/>
      <point x="598" y="248"/>
      <point x="617" y="303"/>
      <point x="617" y="362" type="curve" smooth="yes"/>
      <point x="617" y="423"/>
      <point x="597" y="478"/>
      <point x="564" y="522" type="curve"/>
      <point x="659" y="618" type="line"/>
      <point x="604" y="673" type="line"/>
      <point x="508" y="577" type="line"/>
      <point x="464" y="609"/>
      <point x="411" y="627"/>
      <point x="352" y="627" type="curve" smooth="yes"/>
      <point x="294" y="627"/>
      <point x="240" y="609"/>
      <point x="196" y="577" type="curve"/>
      <point x="101" y="674" type="line"/>
      <point x="44" y="617" type="line"/>
      <point x="138" y="521" type="line"/>
      <point x="105" y="477"/>
      <point x="86" y="423"/>
      <point x="86" y="362" type="curve" smooth="yes"/>
      <point x="86" y="302"/>
      <point x="105" y="247"/>
      <point x="138" y="203" type="curve"/>
      <point x="44" y="109" type="line"/>
    </contour>
    <contour>
      <point x="352" y="195" type="curve" smooth="yes"/>
      <point x="262" y="195"/>
      <point x="193" y="269"/>
      <point x="193" y="362" type="curve" smooth="yes"/>
      <point x="193" y="456"/>
      <point x="263" y="530"/>
      <point x="352" y="530" type="curve" smooth="yes"/>
      <point x="440" y="530"/>
      <point x="510" y="456"/>
      <point x="510" y="362" type="curve" smooth="yes"/>
      <point x="510" y="269"/>
      <point x="441" y="195"/>
    </contour>
  </outline>
</glyph>
<glyph name="yen" format="2">
  <advance width="684"/>
  <unicode hex="00A5"/>
  <outline>
    <contour>
      <point x="223" y="0" type="line"/>
      <point x="341" y="0" type="line"/>
      <point x="371" y="145" type="line"/>
      <point x="536" y="145" type="line"/>
      <point x="550" y="210" type="line"/>
      <point x="385" y="210" type="line"/>
      <point x="398" y="274" type="line"/>
      <point x="400" y="276" type="line"/>
      <point x="564" y="276" type="line"/>
      <point x="578" y="341" type="line"/>
      <point x="455" y="341" type="line"/>
      <point x="763" y="700" type="line"/>
      <point x="624" y="700" type="line"/>
      <point x="358" y="380" type="line"/>
      <point x="225" y="700" type="line"/>
      <point x="100" y="700" type="line"/>
      <point x="254" y="341" type="line"/>
      <point x="130" y="341" type="line"/>
      <point x="117" y="276" type="line"/>
      <point x="281" y="276" type="line"/>
      <point x="267" y="210" type="line"/>
      <point x="102" y="210" type="line"/>
      <point x="89" y="145" type="line"/>
      <point x="253" y="145" type="line"/>
    </contour>
  </outline>
</glyph>
<glyph name="uni00A6" format="2">
  <advance width="323"/>
  <unicode hex="00A6"/>
  <outline>
    <contour>
      <point x="220" y="285" type="line"/>
      <point x="309" y="700" type="line"/>
      <point x="204" y="700" type="line"/>
      <point x="116" y="285" type="line"/>
    </contour>
    <contour>
      <point x="11" y="-210" type="line"/>
      <point x="115" y="-210" type="line"/>
      <point x="203" y="205" type="line"/>
      <point x="99" y="205" type="line"/>
    </contour>
  </outline>
</glyph>
<glyph name="section" format="2">
  <advance width="563"/>
  <unicode hex="00A7"/>
  <outline>
    <contour>
      <point x="420" y="102" type="curve" smooth="yes"/>
      <point x="420" y="131"/>
      <point x="412" y="155"/>
      <point x="395" y="177" type="curve"/>
      <point x="474" y="196"/>
      <point x="524" y="251"/>
      <point x="524" y="327" type="curve" smooth="yes"/>
      <point x="524" y="381"/>
      <point x="494" y="418"/>
      <point x="415" y="459" type="curve" smooth="yes"/>
      <point x="321" y="507" type="line" smooth="yes"/>
      <point x="290" y="523"/>
      <point x="276" y="542"/>
      <point x="276" y="567" type="curve" smooth="yes"/>
      <point x="276" y="606"/>
      <point x="307" y="632"/>
      <point x="352" y="632" type="curve" smooth="yes"/>
      <point x="396" y="632"/>
      <point x="445" y="611"/>
      <point x="497" y="569" type="curve"/>
      <point x="553" y="635" type="line"/>
      <point x="496" y="683"/>
      <point x="426" y="709"/>
      <point x="356" y="709" type="curve" smooth="yes"/>
      <point x="252" y="709"/>
      <point x="179" y="646"/>
      <point x="179" y="556" type="curve" smooth="yes"/>
      <point x="179" y="526"/>
      <point x="187" y="502"/>
      <point x="203" y="480" type="curve"/>
      <point x="125" y="461"/>
      <point x="75" y="406"/>
      <point x="75" y="332" type="curve" smooth="yes"/>
      <point x="75" y="276"/>
      <point x="105" y="239"/>
      <point x="183" y="199" type="curve" smooth="yes"/>
      <point x="276" y="150" type="line" smooth="yes"/>
      <point x="307" y="134"/>
      <point x="321" y="116"/>
      <point x="321" y="90" type="curve" smooth="yes"/>
      <point x="321" y="52"/>
      <point x="290" y="25"/>
      <point x="245" y="25" type="curve" smooth="yes"/>
      <point x="201" y="25"/>
      <point x="152" y="47"/>
      <point x="100" y="89" type="curve"/>
      <point x="44" y="23" type="line"/>
      <point x="101" y="-25"/>
      <point x="171" y="-52"/>
      <point x="242" y="-52" type="curve" smooth="yes"/>
      <point x="346" y="-52"/>
      <point x="420" y="12"/>
    </contour>
    <contour>
      <point x="323" y="231" type="curve" smooth="yes"/>
      <point x="224" y="280" type="line" smooth="yes"/>
      <point x="184" y="301"/>
      <point x="167" y="322"/>
      <point x="167" y="351" type="curve" smooth="yes"/>
      <point x="167" y="396"/>
      <point x="208" y="428"/>
      <point x="267" y="430" type="curve"/>
      <point x="273" y="427" type="line" smooth="yes"/>
      <point x="374" y="378" type="line" smooth="yes"/>
      <point x="413" y="357"/>
      <point x="430" y="336"/>
      <point x="430" y="307" type="curve" smooth="yes"/>
      <point x="430" y="263"/>
      <point x="389" y="229"/>
      <point x="331" y="227" type="curve"/>
      <point x="328" y="228"/>
      <point x="326" y="230"/>
    </contour>
  </outline>
</glyph>
<glyph name="copyright" format="2">
  <advance width="774"/>
  <unicode hex="00A9"/>
  <outline>
    <contour>
      <point x="67" y="308" type="curve" smooth="yes"/>
      <point x="67" y="125"/>
      <point x="197" y="-10"/>
      <point x="373" y="-10" type="curve"/>
      <point x="576" y="-10"/>
      <point x="747" y="173"/>
      <point x="747" y="390" type="curve" smooth="yes"/>
      <point x="747" y="574"/>
      <point x="617" y="708"/>
      <point x="441" y="708" type="curve"/>
      <point x="238" y="708"/>
      <point x="67" y="525"/>
    </contour>
    <contour>
      <point x="691" y="384" type="curve"/>
      <point x="691" y="201"/>
      <point x="546" y="44"/>
      <point x="377" y="43" type="curve"/>
      <point x="231" y="43"/>
      <point x="123" y="159"/>
      <point x="123" y="314" type="curve"/>
      <point x="123" y="497"/>
      <point x="268" y="654"/>
      <point x="436" y="654" type="curve"/>
      <point x="583" y="654"/>
      <point x="691" y="540"/>
    </contour>
    <contour>
      <point x="237" y="325" type="curve" smooth="yes"/>
      <point x="237" y="232"/>
      <point x="302" y="164"/>
      <point x="391" y="164" type="curve" smooth="yes"/>
      <point x="438" y="164"/>
      <point x="484" y="182"/>
      <point x="521" y="214" type="curve"/>
      <point x="487" y="271" type="line"/>
      <point x="459" y="248"/>
      <point x="432" y="236"/>
      <point x="404" y="236" type="curve" smooth="yes"/>
      <point x="352" y="236"/>
      <point x="315" y="277"/>
      <point x="315" y="333" type="curve" smooth="yes"/>
      <point x="315" y="404"/>
      <point x="369" y="465"/>
      <point x="432" y="465" type="curve" smooth="yes"/>
      <point x="466" y="465"/>
      <point x="497" y="446"/>
      <point x="518" y="412" type="curve"/>
      <point x="576" y="462" type="line"/>
      <point x="549" y="508"/>
      <point x="494" y="537"/>
      <point x="437" y="537" type="curve"/>
      <point x="331" y="537"/>
      <point x="237" y="438"/>
    </contour>
  </outline>
</glyph>
<glyph name="ordfeminine" format="2">
  <advance width="418"/>
  <unicode hex="00AA"/>
  <outline>
    <contour>
      <point x="199" y="311" type="curve" smooth="yes"/>
      <point x="236" y="311"/>
      <point x="269" y="321"/>
      <point x="303" y="344" type="curve"/>
      <point x="297" y="316" type="line"/>
      <point x="385" y="316" type="line"/>
      <point x="435" y="551" type="line" smooth="yes"/>
      <point x="456" y="649"/>
      <point x="399" y="710"/>
      <point x="284" y="710" type="curve" smooth="yes"/>
      <point x="238" y="710"/>
      <point x="188" y="699"/>
      <point x="132" y="676" type="curve"/>
      <point x="154" y="608" type="line"/>
      <point x="204" y="626"/>
      <point x="237" y="634"/>
      <point x="265" y="634" type="curve" smooth="yes"/>
      <point x="332" y="634"/>
      <point x="359" y="606"/>
      <point x="347" y="549" type="curve" smooth="yes"/>
      <point x="341" y="522" type="line"/>
      <point x="308" y="538"/>
      <point x="268" y="547"/>
      <point x="231" y="547" type="curve" smooth="yes"/>
      <point x="132" y="547"/>
      <point x="70" y="498"/>
      <point x="70" y="419" type="curve" smooth="yes"/>
      <point x="70" y="353"/>
      <point x="120" y="311"/>
    </contour>
    <contour>
      <point x="155" y="427" type="curve" smooth="yes"/>
      <point x="155" y="462"/>
      <point x="188" y="486"/>
      <point x="238" y="486" type="curve" smooth="yes"/>
      <point x="270" y="486"/>
      <point x="302" y="478"/>
      <point x="329" y="464" type="curve"/>
      <point x="315" y="402" type="line"/>
      <point x="290" y="385"/>
      <point x="261" y="376"/>
      <point x="231" y="376" type="curve"/>
      <point x="183" y="376"/>
      <point x="155" y="394"/>
    </contour>
  </outline>
</glyph>
<glyph name="uni00AC" format="2">
  <advance width="574"/>
  <unicode hex="00AC"/>
  <outline>
    <contour>
      <point x="70" y="332" type="line"/>
      <point x="50" y="235" type="line"/>
      <point x="407" y="235" type="line"/>
      <point x="356" y="0" type="line"/>
      <point x="466" y="0" type="line"/>
      <point x="536" y="332" type="line"/>
    </contour>
  </outline>
</glyph>
<glyph name="macron" format="2">
  <advance width="512"/>
  <unicode hex="00AF"/>
  <anchor x="310" y="501" name="_top"/>
  <outline>
    <contour>
      <point x="499" y="692" type="line"/>
      <point x="207" y="692" type="line"/>
      <point x="191" y="618" type="line"/>
      <point x="483" y="618" type="line"/>
    </contour>
  </outline>
</glyph>
<glyph name="degree" format="2">
  <advance width="389"/>
  <unicode hex="00B0"/>
  <outline>
    <contour>
      <point x="246" y="420" type="curve" smooth="yes"/>
      <point x="332" y="420"/>
      <point x="405" y="494"/>
      <point x="405" y="580" type="curve" smooth="yes"/>
      <point x="405" y="654"/>
      <point x="350" y="708"/>
      <point x="274" y="708" type="curve" smooth="yes"/>
      <point x="189" y="708"/>
      <point x="116" y="634"/>
      <point x="116" y="549" type="curve" smooth="yes"/>
      <point x="116" y="474"/>
      <point x="171" y="420"/>
    </contour>
    <contour>
      <point x="250" y="482" type="curve" smooth="yes"/>
      <point x="211" y="482"/>
      <point x="181" y="514"/>
      <point x="181" y="556" type="curve"/>
      <point x="181" y="605"/>
      <point x="221" y="645"/>
      <point x="270" y="645" type="curve" smooth="yes"/>
      <point x="310" y="645"/>
      <point x="340" y="614"/>
      <point x="340" y="572" type="curve" smooth="yes"/>
      <point x="340" y="523"/>
      <point x="299" y="482"/>
    </contour>
  </outline>
</glyph>
<glyph name="uni00B5" format="2">
  <advance width="597"/>
  <unicode hex="00B5"/>
  <outline>
    <contour>
      <point x="232" y="514" type="line"/>
      <point x="119" y="514" type="line"/>
      <point x="-35" y="-208" type="line"/>
      <point x="79" y="-208" type="line"/>
      <point x="126" y="13" type="line"/>
      <point x="148" y="-2"/>
      <point x="176" y="-10"/>
      <point x="210" y="-10" type="curve"/>
      <point x="270" y="-10"/>
      <point x="325" y="10"/>
      <point x="372" y="48" type="curve"/>
      <point x="362" y="0" type="line"/>
      <point x="476" y="0" type="line"/>
      <point x="584" y="514" type="line"/>
      <point x="470" y="514" type="line"/>
      <point x="393" y="150" type="line"/>
      <point x="359" y="111"/>
      <point x="313" y="88"/>
      <point x="262" y="88" type="curve" smooth="yes"/>
      <point x="189" y="88"/>
      <point x="152" y="136"/>
      <point x="168" y="211" type="curve"/>
    </contour>
  </outline>
</glyph>
<glyph name="AE" format="2">
  <advance width="932"/>
  <unicode hex="00C6"/>
  <outline>
    <contour>
      <point x="-48" y="0" type="line"/>
      <point x="74" y="0" type="line"/>
      <point x="188" y="196" type="line"/>
      <point x="469" y="196" type="line"/>
      <point x="495" y="0" type="line"/>
      <point x="824" y="0" type="line"/>
      <point x="846" y="105" type="line"/>
      <point x="598" y="105" type="line"/>
      <point x="571" y="302" type="line"/>
      <point x="764" y="302" type="line"/>
      <point x="786" y="404" type="line"/>
      <point x="558" y="404" type="line"/>
      <point x="532" y="595" type="line"/>
      <point x="950" y="595" type="line"/>
      <point x="972" y="700" type="line"/>
      <point x="368" y="700" type="line"/>
    </contour>
    <contour>
      <point x="243" y="290" type="line"/>
      <point x="416" y="587" type="line"/>
      <point x="456" y="290" type="line"/>
    </contour>
  </outline>
</glyph>
<glyph name="Ccedilla" format="2">
  <advance width="712"/>
  <unicode hex="00C7"/>
  <outline>
    <contour>
      <point x="410" y="97" type="curve"/>
      <point x="284" y="97"/>
      <point x="191" y="194"/>
      <point x="191" y="327" type="curve" smooth="yes"/>
      <point x="191" y="480"/>
      <point x="302" y="603"/>
      <point x="442" y="603" type="curve" smooth="yes"/>
      <point x="521" y="603"/>
      <point x="587" y="566"/>
      <point x="626" y="499" type="curve"/>
      <point x="717" y="575" type="line"/>
      <point x="660" y="663"/>
      <point x="566" y="709"/>
      <point x="448" y="709" type="curve" smooth="yes"/>
      <point x="241" y="709"/>
      <point x="70" y="535"/>
      <point x="70" y="321" type="curve" smooth="yes"/>
      <point x="70" y="151"/>
      <point x="186" y="18"/>
      <point x="345" y="-6" type="curve"/>
      <point x="303" y="-103" type="line"/>
      <point x="337" y="-103" type="line" smooth="yes"/>
      <point x="372" y="-103"/>
      <point x="395" y="-119"/>
      <point x="395" y="-144" type="curve" smooth="yes"/>
      <point x="395" y="-173"/>
      <point x="370" y="-192"/>
      <point x="331" y="-192" type="curve" smooth="yes"/>
      <point x="302" y="-192"/>
      <point x="276" y="-180"/>
      <point x="256" y="-159" type="curve"/>
      <point x="215" y="-201" type="line"/>
      <point x="240" y="-230"/>
      <point x="282" y="-245"/>
      <point x="333" y="-245" type="curve" smooth="yes"/>
      <point x="404" y="-245"/>
      <point x="459" y="-198"/>
      <point x="459" y="-137" type="curve" smooth="yes"/>
      <point x="459" y="-96"/>
      <point x="429" y="-68"/>
      <point x="376" y="-63" type="curve"/>
      <point x="400" y="-10" type="line"/>
      <point x="494" y="-10"/>
      <point x="592" y="31"/>
      <point x="665" y="103" type="curve"/>
      <point x="601" y="182" type="line"/>
      <point x="547" y="127"/>
      <point x="479" y="97"/>
    </contour>
  </outline>
</glyph>
<glyph name="Eth" format="2">
  <advance width="753"/>
  <unicode hex="00D0"/>
  <outline>
    <contour>
      <point x="51" y="0" type="line"/>
      <point x="335" y="0" type="line" smooth="yes"/>
      <point x="547" y="0"/>
      <point x="722" y="177"/>
      <point x="722" y="389" type="curve" smooth="yes"/>
      <point x="722" y="571"/>
      <point x="596" y="700"/>
      <point x="419" y="700" type="curve" smooth="yes"/>
      <point x="200" y="700" type="line"/>
      <point x="136" y="399" type="line"/>
      <point x="49" y="399" type="line"/>
      <point x="28" y="302" type="line"/>
      <point x="115" y="302" type="line"/>
    </contour>
    <contour>
      <point x="409" y="596" type="line" smooth="yes"/>
      <point x="521" y="596"/>
      <point x="600" y="508"/>
      <point x="600" y="382" type="curve" smooth="yes"/>
      <point x="600" y="228"/>
      <point x="487" y="104"/>
      <point x="348" y="104" type="curve" smooth="yes"/>
      <point x="190" y="104" type="line"/>
      <point x="232" y="302" type="line"/>
      <point x="388" y="302" type="line"/>
      <point x="409" y="399" type="line"/>
      <point x="253" y="399" type="line"/>
      <point x="295" y="596" type="line"/>
    </contour>
  </outline>
</glyph>
<glyph name="Oslash" format="2">
  <advance width="797"/>
  <unicode hex="00D8"/>
  <outline>
    <contour>
      <point x="112" y="-5" type="line"/>
      <point x="183" y="64" type="line"/>
      <point x="238" y="17"/>
      <point x="311" y="-11"/>
      <point x="392" y="-11" type="curve" smooth="yes"/>
      <point x="596" y="-11"/>
      <point x="765" y="166"/>
      <point x="765" y="380" type="curve" smooth="yes"/>
      <point x="765" y="455"/>
      <point x="743" y="523"/>
      <point x="705" y="577" type="curve"/>
      <point x="835" y="705" type="line"/>
      <point x="726" y="705" type="line"/>
      <point x="654" y="634" type="line"/>
      <point x="598" y="683"/>
      <point x="525" y="711"/>
      <point x="443" y="711" type="curve" smooth="yes"/>
      <point x="239" y="711"/>
      <point x="70" y="534"/>
      <point x="70" y="320" type="curve" smooth="yes"/>
      <point x="70" y="244"/>
      <point x="92" y="175"/>
      <point x="131" y="120" type="curve"/>
      <point x="4" y="-5" type="line"/>
    </contour>
    <contour>
      <point x="190" y="327" type="curve" smooth="yes"/>
      <point x="190" y="479"/>
      <point x="300" y="604"/>
      <point x="436" y="604" type="curve" smooth="yes"/>
      <point x="489" y="604"/>
      <point x="535" y="585"/>
      <point x="571" y="553" type="curve"/>
      <point x="219" y="206" type="line"/>
      <point x="200" y="241"/>
      <point x="190" y="282"/>
    </contour>
    <contour>
      <point x="645" y="373" type="curve" smooth="yes"/>
      <point x="645" y="220"/>
      <point x="535" y="97"/>
      <point x="400" y="97" type="curve" smooth="yes"/>
      <point x="348" y="97"/>
      <point x="302" y="115"/>
      <point x="266" y="146" type="curve"/>
      <point x="618" y="492" type="line"/>
      <point x="635" y="457"/>
      <point x="645" y="417"/>
    </contour>
  </outline>
</glyph>
<glyph name="germandbls" format="2">
  <advance width="662"/>
  <unicode hex="00DF"/>
  <outline>
    <contour>
      <point x="411" y="360" type="curve" smooth="yes"/>
      <point x="411" y="433"/>
      <point x="618" y="428"/>
      <point x="618" y="590" type="curve" smooth="yes"/>
      <point x="618" y="692"/>
      <point x="523" y="765"/>
      <point x="392" y="765" type="curve" smooth="yes"/>
      <point x="250" y="765"/>
      <point x="151" y="680"/>
      <point x="121" y="530" type="curve" smooth="yes"/>
      <point x="13" y="0" type="line"/>
      <point x="124" y="0" type="line"/>
      <point x="229" y="516" type="line" smooth="yes"/>
      <point x="250" y="617"/>
      <point x="305" y="669"/>
      <point x="390" y="669" type="curve" smooth="yes"/>
      <point x="455" y="669"/>
      <point x="506" y="631"/>
      <point x="506" y="585" type="curve" smooth="yes"/>
      <point x="506" y="473"/>
      <point x="307" y="493"/>
      <point x="307" y="346" type="curve" smooth="yes"/>
      <point x="307" y="301"/>
      <point x="330" y="267"/>
      <point x="377" y="245" type="curve" smooth="yes"/>
      <point x="446" y="212" type="line" smooth="yes"/>
      <point x="492" y="191"/>
      <point x="509" y="173"/>
      <point x="509" y="144" type="curve" smooth="yes"/>
      <point x="509" y="101"/>
      <point x="475" y="72"/>
      <point x="424" y="72" type="curve" smooth="yes"/>
      <point x="373" y="72"/>
      <point x="326" y="97"/>
      <point x="292" y="141" type="curve"/>
      <point x="229" y="76" type="line"/>
      <point x="275" y="18"/>
      <point x="344" y="-13"/>
      <point x="425" y="-13" type="curve" smooth="yes"/>
      <point x="533" y="-13"/>
      <point x="610" y="57"/>
      <point x="610" y="153" type="curve" smooth="yes"/>
      <point x="610" y="209"/>
      <point x="579" y="250"/>
      <point x="512" y="284" type="curve" smooth="yes"/>
      <point x="447" y="316" type="line" smooth="yes"/>
      <point x="423" y="327"/>
      <point x="411" y="342"/>
    </contour>
  </outline>
</glyph>
<glyph name="ae" format="2">
  <advance width="869"/>
  <unicode hex="00E6"/>
  <outline>
    <contour>
      <point x="201" y="-6" type="curve" smooth="yes"/>
      <point x="276" y="-6"/>
      <point x="339" y="19"/>
      <point x="403" y="74" type="curve"/>
      <point x="445" y="22"/>
      <point x="511" y="-10"/>
      <point x="590" y="-10" type="curve" smooth="yes"/>
      <point x="657" y="-10"/>
      <point x="713" y="8"/>
      <point x="774" y="51" type="curve"/>
      <point x="714" y="125" type="line"/>
      <point x="685" y="98"/>
      <point x="643" y="84"/>
      <point x="599" y="84" type="curve" smooth="yes"/>
      <point x="521" y="84"/>
      <point x="464" y="142"/>
      <point x="462" y="223" type="curve"/>
      <point x="823" y="223" type="line"/>
      <point x="826" y="243"/>
      <point x="828" y="262"/>
      <point x="828" y="286" type="curve" smooth="yes"/>
      <point x="828" y="417"/>
      <point x="742" y="508"/>
      <point x="619" y="508" type="curve" smooth="yes"/>
      <point x="554" y="508"/>
      <point x="492" y="483"/>
      <point x="444" y="436" type="curve"/>
      <point x="417" y="482"/>
      <point x="364" y="508"/>
      <point x="289" y="508" type="curve" smooth="yes"/>
      <point x="232" y="508"/>
      <point x="172" y="495"/>
      <point x="98" y="467" type="curve"/>
      <point x="125" y="384" type="line"/>
      <point x="182" y="406"/>
      <point x="223" y="415"/>
      <point x="259" y="415" type="curve" smooth="yes"/>
      <point x="343" y="415"/>
      <point x="380" y="377"/>
      <point x="365" y="305" type="curve"/>
      <point x="364" y="297" type="line"/>
      <point x="361" y="287"/>
      <point x="359" y="277"/>
      <point x="358" y="267" type="curve"/>
      <point x="320" y="284"/>
      <point x="274" y="293"/>
      <point x="227" y="293" type="curve" smooth="yes"/>
      <point x="110" y="293"/>
      <point x="34" y="230"/>
      <point x="34" y="133" type="curve" smooth="yes"/>
      <point x="34" y="49"/>
      <point x="101" y="-6"/>
    </contour>
    <contour>
      <point x="612" y="415" type="curve" smooth="yes"/>
      <point x="676" y="415"/>
      <point x="723" y="365"/>
      <point x="727" y="292" type="curve"/>
      <point x="471" y="292" type="line"/>
      <point x="491" y="365"/>
      <point x="545" y="415"/>
    </contour>
    <contour>
      <point x="135" y="142" type="curve" smooth="yes"/>
      <point x="135" y="189"/>
      <point x="177" y="220"/>
      <point x="241" y="220" type="curve" smooth="yes"/>
      <point x="285" y="220"/>
      <point x="323" y="213"/>
      <point x="355" y="197" type="curve"/>
      <point x="357" y="172"/>
      <point x="363" y="149"/>
      <point x="372" y="128" type="curve"/>
      <point x="329" y="92"/>
      <point x="282" y="73"/>
      <point x="233" y="73" type="curve" smooth="yes"/>
      <point x="171" y="73"/>
      <point x="135" y="98"/>
    </contour>
  </outline>
</glyph>
<glyph name="eth" format="2">
  <advance width="581"/>
  <unicode hex="00F0"/>
  <outline>
    <contour>
      <point x="305" y="521" type="line"/>
      <point x="403" y="570" type="line"/>
      <point x="439" y="515"/>
      <point x="457" y="448"/>
      <point x="457" y="375" type="curve"/>
      <point x="434" y="433"/>
      <point x="370" y="473"/>
      <point x="290" y="473" type="curve" smooth="yes"/>
      <point x="154" y="473"/>
      <point x="49" y="359"/>
      <point x="49" y="212" type="curve" smooth="yes"/>
      <point x="49" y="82"/>
      <point x="138" y="-9"/>
      <point x="266" y="-9" type="curve" smooth="yes"/>
      <point x="433" y="-9"/>
      <point x="553" y="152"/>
      <point x="553" y="376" type="curve" smooth="yes"/>
      <point x="553" y="468"/>
      <point x="532" y="548"/>
      <point x="491" y="614" type="curve"/>
      <point x="583" y="660" type="line"/>
      <point x="557" y="722" type="line"/>
      <point x="451" y="669" type="line"/>
      <point x="423" y="699"/>
      <point x="390" y="726"/>
      <point x="351" y="749" type="curve"/>
      <point x="284" y="678" type="line"/>
      <point x="313" y="663"/>
      <point x="338" y="645"/>
      <point x="360" y="623" type="curve"/>
      <point x="280" y="583" type="line"/>
    </contour>
    <contour>
      <point x="271" y="88" type="curve" smooth="yes"/>
      <point x="201" y="88"/>
      <point x="150" y="143"/>
      <point x="150" y="219" type="curve" smooth="yes"/>
      <point x="150" y="309"/>
      <point x="221" y="386"/>
      <point x="303" y="386" type="curve" smooth="yes"/>
      <point x="372" y="386"/>
      <point x="423" y="330"/>
      <point x="423" y="255" type="curve" smooth="yes"/>
      <point x="423" y="166"/>
      <point x="352" y="88"/>
    </contour>
  </outline>
</glyph>
<glyph name="divide" format="2">
  <advance width="533"/>
  <unicode hex="00F7"/>
  <outline>
    <contour>
      <point x="325" y="495" type="curve" smooth="yes"/>
      <point x="365" y="495"/>
      <point x="401" y="533"/>
      <point x="401" y="574" type="curve" smooth="yes"/>
      <point x="401" y="609"/>
      <point x="375" y="636"/>
      <point x="341" y="636" type="curve" smooth="yes"/>
      <point x="298" y="636"/>
      <point x="263" y="599"/>
      <point x="263" y="557" type="curve" smooth="yes"/>
      <point x="263" y="522"/>
      <point x="290" y="495"/>
    </contour>
    <contour>
      <point x="73" y="313" type="line"/>
      <point x="484" y="313" type="line"/>
      <point x="503" y="403" type="line"/>
      <point x="92" y="403" type="line"/>
    </contour>
    <contour>
      <point x="237" y="83" type="curve" smooth="yes"/>
      <point x="277" y="83"/>
      <point x="313" y="120"/>
      <point x="313" y="161" type="curve" smooth="yes"/>
      <point x="313" y="196"/>
      <point x="287" y="223"/>
      <point x="253" y="223" type="curve" smooth="yes"/>
      <point x="210" y="223"/>
      <point x="175" y="186"/>
      <point x="175" y="145" type="curve" smooth="yes"/>
      <point x="175" y="110"/>
      <point x="202" y="83"/>
    </contour>
  </outline>
</glyph>
<glyph name="oslash" format="2">
  <advance width="588"/>
  <unicode hex="00F8"/>
  <outline>
    <contour>
      <point x="-6" y="-5" type="line"/>
      <point x="79" y="-5" type="line"/>
      <point x="126" y="41" type="line"/>
      <point x="164" y="9"/>
      <point x="214" y="-10"/>
      <point x="271" y="-10" type="curve" smooth="yes"/>
      <point x="419" y="-10"/>
      <point x="541" y="119"/>
      <point x="541" y="276" type="curve" smooth="yes"/>
      <point x="541" y="329"/>
      <point x="527" y="376"/>
      <point x="502" y="414" type="curve"/>
      <point x="595" y="506" type="line"/>
      <point x="509" y="506" type="line"/>
      <point x="462" y="459" type="line"/>
      <point x="424" y="491"/>
      <point x="374" y="509"/>
      <point x="317" y="509" type="curve" smooth="yes"/>
      <point x="167" y="509"/>
      <point x="46" y="381"/>
      <point x="46" y="224" type="curve" smooth="yes"/>
      <point x="46" y="171"/>
      <point x="60" y="124"/>
      <point x="86" y="86" type="curve"/>
    </contour>
    <contour>
      <point x="156" y="228" type="curve" smooth="yes"/>
      <point x="156" y="331"/>
      <point x="224" y="413"/>
      <point x="310" y="413" type="curve" smooth="yes"/>
      <point x="341" y="413"/>
      <point x="367" y="403"/>
      <point x="388" y="386" type="curve"/>
      <point x="166" y="166" type="line"/>
      <point x="160" y="184"/>
      <point x="156" y="205"/>
    </contour>
    <contour>
      <point x="277" y="88" type="curve" smooth="yes"/>
      <point x="247" y="88"/>
      <point x="220" y="98"/>
      <point x="200" y="115" type="curve"/>
      <point x="422" y="335" type="line"/>
      <point x="429" y="317"/>
      <point x="432" y="296"/>
      <point x="432" y="274" type="curve" smooth="yes"/>
      <point x="432" y="169"/>
      <point x="364" y="88"/>
    </contour>
  </outline>
</glyph>
<glyph name="thorn" format="2">
  <advance width="599"/>
  <unicode hex="00FE"/>
  <outline>
    <contour>
      <point x="-30" y="-202" type="line"/>
      <point x="81" y="-202" type="line"/>
      <point x="141" y="80" type="line"/>
      <point x="173" y="25"/>
      <point x="228" y="-6"/>
      <point x="296" y="-6" type="curve"/>
      <point x="437" y="-6"/>
      <point x="552" y="121"/>
      <point x="552" y="277" type="curve" smooth="yes"/>
      <point x="552" y="405"/>
      <point x="468" y="504"/>
      <point x="358" y="504" type="curve"/>
      <point x="303" y="504"/>
      <point x="254" y="482"/>
      <point x="217" y="443" type="curve"/>
      <point x="279" y="734" type="line"/>
      <point x="165" y="715" type="line"/>
    </contour>
    <contour>
      <point x="312" y="410" type="curve"/>
      <point x="389" y="410"/>
      <point x="443" y="351"/>
      <point x="443" y="267" type="curve" smooth="yes"/>
      <point x="443" y="168"/>
      <point x="372" y="90"/>
      <point x="279" y="90" type="curve"/>
      <point x="228" y="90"/>
      <point x="181" y="117"/>
      <point x="157" y="158" type="curve"/>
      <point x="200" y="361" type="line"/>
      <point x="232" y="394"/>
      <point x="270" y="410"/>
    </contour>
  </outline>
</glyph>
<glyph name="Aogonek" format="2">
  <advance width="683"/>
  <unicode hex="0104"/>
  <outline>
    <contour>
      <point x="-48" y="0" type="line"/>
      <point x="81" y="0" type="line"/>
      <point x="192" y="196" type="line"/>
      <point x="472" y="196" type="line"/>
      <point x="502" y="0" type="line"/>
      <point x="553" y="0" type="line"/>
      <point x="473" y="-48"/>
      <point x="434" y="-98"/>
      <point x="434" y="-153" type="curve"/>
      <point x="434" y="-201"/>
      <point x="471" y="-231"/>
      <point x="526" y="-231" type="curve"/>
      <point x="555" y="-231"/>
      <point x="584" y="-225"/>
      <point x="605" y="-213" type="curve"/>
      <point x="601" y="-160" type="line"/>
      <point x="589" y="-166"/>
      <point x="571" y="-170"/>
      <point x="555" y="-170" type="curve"/>
      <point x="524" y="-170"/>
      <point x="504" y="-153"/>
      <point x="504" y="-127" type="curve"/>
      <point x="504" y="-85"/>
      <point x="542" y="-43"/>
      <point x="623" y="0" type="curve"/>
      <point x="503" y="700" type="line"/>
      <point x="366" y="700" type="line"/>
    </contour>
    <contour>
      <point x="245" y="290" type="line"/>
      <point x="412" y="587" type="line"/>
      <point x="458" y="290" type="line"/>
    </contour>
  </outline>
</glyph>
<glyph name="Eogonek" format="2">
  <advance width="630"/>
  <unicode hex="0118"/>
  <outline>
    <contour>
      <point x="28" y="0" type="line"/>
      <point x="453" y="0" type="line"/>
      <point x="373" y="-48"/>
      <point x="334" y="-98"/>
      <point x="334" y="-153" type="curve"/>
      <point x="334" y="-201"/>
      <point x="371" y="-231"/>
      <point x="426" y="-231" type="curve"/>
      <point x="455" y="-231"/>
      <point x="484" y="-225"/>
      <point x="505" y="-213" type="curve"/>
      <point x="501" y="-160" type="line"/>
      <point x="489" y="-166"/>
      <point x="471" y="-170"/>
      <point x="455" y="-170" type="curve"/>
      <point x="424" y="-170"/>
      <point x="404" y="-153"/>
      <point x="404" y="-127" type="curve"/>
      <point x="404" y="-85"/>
      <point x="442" y="-43"/>
      <point x="523" y="0" type="curve"/>
      <point x="545" y="102" type="line"/>
      <point x="167" y="102" type="line"/>
      <point x="209" y="303" type="line"/>
      <point x="471" y="303" type="line"/>
      <point x="492" y="403" type="line"/>
      <point x="231" y="403" type="line"/>
      <point x="272" y="598" type="line"/>
      <point x="645" y="598" type="line"/>
      <point x="668" y="700" type="line"/>
      <point x="177" y="700" type="line"/>
    </contour>
  </outline>
</glyph>
<glyph name="hcircumflex" format="2">
  <advance width="571"/>
  <unicode hex="0125"/>
  <outline>
    <contour>
      <point x="322" y="787" type="line"/>
      <point x="406" y="787" type="line"/>
      <point x="316" y="925" type="line"/>
      <point x="204" y="925" type="line"/>
      <point x="59" y="787" type="line"/>
      <point x="149" y="787" type="line"/>
      <point x="252" y="873" type="line"/>
    </contour>
    <contour>
      <point x="14" y="0" type="line"/>
      <point x="126" y="0" type="line"/>
      <point x="201" y="359" type="line"/>
      <point x="234" y="398"/>
      <point x="274" y="418"/>
      <point x="316" y="418" type="curve" smooth="yes"/>
      <point x="385" y="418"/>
      <point x="420" y="366"/>
      <point x="403" y="291" type="curve"/>
      <point x="340" y="0" type="line"/>
      <point x="451" y="0" type="line"/>
      <point x="519" y="317" type="line" smooth="yes"/>
      <point x="543" y="427"/>
      <point x="485" y="507"/>
      <point x="379" y="507" type="curve"/>
      <point x="316" y="507"/>
      <point x="260" y="477"/>
      <point x="213" y="420" type="curve"/>
      <point x="274" y="712" type="line"/>
      <point x="164" y="712" type="line"/>
    </contour>
  </outline>
</glyph>
<glyph name="Hbar" format="2">
  <advance width="771"/>
  <unicode hex="0126"/>
  <outline>
    <contour>
      <point x="41" y="0" type="line"/>
      <point x="158" y="0" type="line"/>
      <point x="222" y="302" type="line"/>
      <point x="564" y="302" type="line"/>
      <point x="500" y="0" type="line"/>
      <point x="617" y="0" type="line"/>
      <point x="726" y="512" type="line"/>
      <point x="810" y="512" type="line"/>
      <point x="830" y="596" type="line"/>
      <point x="744" y="596" type="line"/>
      <point x="766" y="700" type="line"/>
      <point x="649" y="700" type="line"/>
      <point x="627" y="596" type="line"/>
      <point x="285" y="596" type="line"/>
      <point x="307" y="700" type="line"/>
      <point x="190" y="700" type="line"/>
      <point x="168" y="596" type="line"/>
      <point x="84" y="596" type="line"/>
      <point x="64" y="512" type="line"/>
      <point x="150" y="512" type="line"/>
    </contour>
    <contour>
      <point x="244" y="403" type="line"/>
      <point x="267" y="512" type="line"/>
      <point x="609" y="512" type="line"/>
      <point x="586" y="403" type="line"/>
    </contour>
  </outline>
</glyph>
<glyph name="hbar" format="2">
  <advance width="578"/>
  <unicode hex="0127"/>
  <outline>
    <contour>
      <point x="22" y="0" type="line"/>
      <point x="134" y="0" type="line"/>
      <point x="209" y="360" type="line"/>
      <point x="243" y="399"/>
      <point x="282" y="418"/>
      <point x="324" y="418" type="curve" smooth="yes"/>
      <point x="393" y="418"/>
      <point x="427" y="366"/>
      <point x="411" y="291" type="curve" smooth="yes"/>
      <point x="348" y="0" type="line"/>
      <point x="459" y="0" type="line"/>
      <point x="527" y="317" type="line" smooth="yes"/>
      <point x="551" y="428"/>
      <point x="494" y="507"/>
      <point x="387" y="507" type="curve" smooth="yes"/>
      <point x="325" y="507"/>
      <point x="269" y="478"/>
      <point x="222" y="420" type="curve"/>
      <point x="252" y="567" type="line"/>
      <point x="379" y="567" type="line"/>
      <point x="395" y="634" type="line"/>
      <point x="266" y="634" type="line"/>
      <point x="287" y="734" type="line"/>
      <point x="171" y="715" type="line"/>
      <point x="154" y="634" type="line"/>
      <point x="101" y="634" type="line"/>
      <point x="85" y="567" type="line"/>
      <point x="140" y="567" type="line"/>
    </contour>
  </outline>
</glyph>
<glyph name="Iogonek" format="2">
  <advance width="272"/>
  <unicode hex="012E"/>
  <outline>
    <contour>
      <point x="22" y="0" type="line"/>
      <point x="70" y="0" type="line"/>
      <point x="-10" y="-48"/>
      <point x="-49" y="-98"/>
      <point x="-49" y="-153" type="curve"/>
      <point x="-49" y="-201"/>
      <point x="-12" y="-231"/>
      <point x="43" y="-231" type="curve"/>
      <point x="72" y="-231"/>
      <point x="101" y="-225"/>
      <point x="122" y="-213" type="curve"/>
      <point x="118" y="-160" type="line"/>
      <point x="106" y="-166"/>
      <point x="88" y="-170"/>
      <point x="72" y="-170" type="curve"/>
      <point x="41" y="-170"/>
      <point x="21" y="-153"/>
      <point x="21" y="-127" type="curve"/>
      <point x="21" y="-85"/>
      <point x="59" y="-43"/>
      <point x="140" y="0" type="curve"/>
      <point x="289" y="700" type="line"/>
      <point x="171" y="700" type="line"/>
    </contour>
  </outline>
</glyph>
<glyph name="kgreenlandic" format="2">
  <advance width="525"/>
  <unicode hex="0138"/>
  <outline>
    <contour>
      <point x="14" y="0" type="line"/>
      <point x="126" y="0" type="line"/>
      <point x="175" y="224" type="line"/>
      <point x="331" y="0" type="line"/>
      <point x="463" y="0" type="line"/>
      <point x="279" y="249" type="line"/>
      <point x="570" y="501" type="line"/>
      <point x="431" y="501" type="line"/>
      <point x="187" y="282" type="line"/>
      <point x="235" y="501" type="line"/>
      <point x="124" y="501" type="line"/>
    </contour>
  </outline>
</glyph>
<glyph name="lacute" format="2">
  <advance width="249"/>
  <unicode hex="013A"/>
  <outline>
    <contour>
      <point x="318" y="920" type="line"/>
      <point x="169" y="787" type="line"/>
      <point x="272" y="787" type="line"/>
      <point x="461" y="920" type="line"/>
    </contour>
    <contour>
      <point x="14" y="0" type="line"/>
      <point x="126" y="0" type="line"/>
      <point x="274" y="712" type="line"/>
      <point x="163" y="712" type="line"/>
    </contour>
  </outline>
</glyph>
<glyph name="lslash" format="2">
  <advance width="293"/>
  <unicode hex="0142"/>
  <outline>
    <contour>
      <point x="19" y="308" type="line"/>
      <point x="-4" y="197" type="line"/>
      <point x="95" y="262" type="line"/>
      <point x="40" y="0" type="line"/>
      <point x="152" y="0" type="line"/>
      <point x="224" y="347" type="line"/>
      <point x="330" y="416" type="line"/>
      <point x="353" y="527" type="line"/>
      <point x="247" y="458" type="line"/>
      <point x="305" y="734" type="line"/>
      <point x="191" y="715" type="line"/>
      <point x="119" y="373" type="line"/>
    </contour>
  </outline>
</glyph>
<glyph name="Eng" format="2">
  <advance width="747"/>
  <unicode hex="014A"/>
  <outline>
    <contour>
      <point x="505" y="6" type="line"/>
      <point x="490" y="-63" type="line" smooth="yes"/>
      <point x="483" y="-100"/>
      <point x="463" y="-118"/>
      <point x="428" y="-118" type="curve" smooth="yes"/>
      <point x="408" y="-118"/>
      <point x="394" y="-116"/>
      <point x="383" y="-112" type="curve"/>
      <point x="364" y="-201" type="line"/>
      <point x="379" y="-207"/>
      <point x="404" y="-212"/>
      <point x="432" y="-212" type="curve" smooth="yes"/>
      <point x="516" y="-212"/>
      <point x="574" y="-163"/>
      <point x="593" y="-75" type="curve" smooth="yes"/>
      <point x="758" y="700" type="line"/>
      <point x="647" y="700" type="line"/>
      <point x="541" y="192" type="line"/>
      <point x="294" y="700" type="line"/>
      <point x="177" y="700" type="line"/>
      <point x="28" y="0" type="line"/>
      <point x="139" y="0" type="line"/>
      <point x="249" y="528" type="line"/>
    </contour>
  </outline>
</glyph>
<glyph name="eng" format="2">
  <advance width="571"/>
  <unicode hex="014B"/>
  <outline>
    <contour>
      <point x="14" y="0" type="line"/>
      <point x="126" y="0" type="line"/>
      <point x="205" y="364" type="line"/>
      <point x="238" y="400"/>
      <point x="275" y="418"/>
      <point x="316" y="418" type="curve" smooth="yes"/>
      <point x="384" y="418"/>
      <point x="419" y="366"/>
      <point x="403" y="291" type="curve" smooth="yes"/>
      <point x="326" y="-68" type="line" smooth="yes"/>
      <point x="319" y="-103"/>
      <point x="301" y="-119"/>
      <point x="268" y="-119" type="curve" smooth="yes"/>
      <point x="249" y="-119"/>
      <point x="236" y="-117"/>
      <point x="223" y="-113" type="curve"/>
      <point x="204" y="-205" type="line"/>
      <point x="220" y="-212"/>
      <point x="250" y="-216"/>
      <point x="273" y="-216" type="curve" smooth="yes"/>
      <point x="358" y="-216"/>
      <point x="416" y="-167"/>
      <point x="435" y="-79" type="curve" smooth="yes"/>
      <point x="520" y="318" type="line" smooth="yes"/>
      <point x="543" y="428"/>
      <point x="485" y="507"/>
      <point x="379" y="507" type="curve" smooth="yes"/>
      <point x="319" y="507"/>
      <point x="265" y="480"/>
      <point x="219" y="426" type="curve"/>
      <point x="235" y="501" type="line"/>
      <point x="123" y="501" type="line"/>
    </contour>
  </outline>
</glyph>
<glyph name="OE" format="2">
  <advance width="1058"/>
  <unicode hex="0152"/>
  <outline>
    <contour>
      <point x="384" y="0" type="curve" smooth="yes"/>
      <point x="950" y="0" type="line"/>
      <point x="972" y="105" type="line"/>
      <point x="616" y="105" type="line"/>
      <point x="671" y="157"/>
      <point x="710" y="226"/>
      <point x="726" y="302" type="curve"/>
      <point x="895" y="302" type="line"/>
      <point x="917" y="404" type="line"/>
      <point x="734" y="404" type="line"/>
      <point x="730" y="478"/>
      <point x="702" y="545"/>
      <point x="657" y="595" type="curve"/>
      <point x="1076" y="595" type="line"/>
      <point x="1098" y="700" type="line"/>
      <point x="442" y="700" type="line" smooth="yes"/>
      <point x="233" y="700"/>
      <point x="66" y="531"/>
      <point x="66" y="318" type="curve" smooth="yes"/>
      <point x="66" y="132"/>
      <point x="197" y="0"/>
    </contour>
    <contour>
      <point x="382" y="107" type="curve" smooth="yes"/>
      <point x="266" y="107"/>
      <point x="182" y="199"/>
      <point x="182" y="325" type="curve" smooth="yes"/>
      <point x="182" y="471"/>
      <point x="292" y="593"/>
      <point x="424" y="593" type="curve" smooth="yes"/>
      <point x="538" y="593"/>
      <point x="621" y="501"/>
      <point x="621" y="376" type="curve" smooth="yes"/>
      <point x="621" y="229"/>
      <point x="513" y="107"/>
    </contour>
  </outline>
</glyph>
<glyph name="oe" format="2">
  <advance width="950"/>
  <unicode hex="0153"/>
  <outline>
    <contour>
      <point x="46" y="224" type="curve" smooth="yes"/>
      <point x="46" y="88"/>
      <point x="141" y="-10"/>
      <point x="271" y="-10" type="curve" smooth="yes"/>
      <point x="351" y="-10"/>
      <point x="424" y="29"/>
      <point x="473" y="90" type="curve"/>
      <point x="513" y="28"/>
      <point x="583" y="-10"/>
      <point x="669" y="-10" type="curve" smooth="yes"/>
      <point x="736" y="-10"/>
      <point x="792" y="8"/>
      <point x="853" y="51" type="curve"/>
      <point x="793" y="125" type="line"/>
      <point x="764" y="98"/>
      <point x="722" y="84"/>
      <point x="679" y="84" type="curve" smooth="yes"/>
      <point x="601" y="84"/>
      <point x="543" y="142"/>
      <point x="541" y="223" type="curve"/>
      <point x="902" y="223" type="line"/>
      <point x="905" y="243"/>
      <point x="907" y="262"/>
      <point x="907" y="286" type="curve" smooth="yes"/>
      <point x="907" y="417"/>
      <point x="821" y="508"/>
      <point x="698" y="508" type="curve" smooth="yes"/>
      <point x="619" y="508"/>
      <point x="549" y="470"/>
      <point x="501" y="410" type="curve"/>
      <point x="463" y="472"/>
      <point x="397" y="509"/>
      <point x="317" y="509" type="curve" smooth="yes"/>
      <point x="167" y="509"/>
      <point x="46" y="381"/>
    </contour>
    <contour>
      <point x="691" y="415" type="curve" smooth="yes"/>
      <point x="755" y="415"/>
      <point x="802" y="365"/>
      <point x="806" y="292" type="curve"/>
      <point x="550" y="292" type="line"/>
      <point x="570" y="365"/>
      <point x="625" y="415"/>
    </contour>
    <contour>
      <point x="277" y="88" type="curve" smooth="yes"/>
      <point x="204" y="88"/>
      <point x="156" y="144"/>
      <point x="156" y="228" type="curve" smooth="yes"/>
      <point x="156" y="331"/>
      <point x="224" y="413"/>
      <point x="310" y="413" type="curve" smooth="yes"/>
      <point x="384" y="413"/>
      <point x="432" y="357"/>
      <point x="432" y="274" type="curve" smooth="yes"/>
      <point x="432" y="169"/>
      <point x="364" y="88"/>
    </contour>
  </outline>
</glyph>
<glyph name="Scedilla" format="2">
  <advance width="626"/>
  <unicode hex="015E"/>
  <outline>
    <contour>
      <point x="11" y="125" type="line"/>
      <point x="84" y="47"/>
      <point x="168" y="3"/>
      <point x="265" y="-7" type="curve"/>
      <point x="223" y="-103" type="line"/>
      <point x="257" y="-103" type="line" smooth="yes"/>
      <point x="292" y="-103"/>
      <point x="315" y="-119"/>
      <point x="315" y="-144" type="curve" smooth="yes"/>
      <point x="315" y="-173"/>
      <point x="290" y="-192"/>
      <point x="251" y="-192" type="curve" smooth="yes"/>
      <point x="222" y="-192"/>
      <point x="196" y="-180"/>
      <point x="176" y="-159" type="curve"/>
      <point x="135" y="-201" type="line"/>
      <point x="160" y="-230"/>
      <point x="202" y="-245"/>
      <point x="253" y="-245" type="curve" smooth="yes"/>
      <point x="324" y="-245"/>
      <point x="379" y="-198"/>
      <point x="379" y="-137" type="curve" smooth="yes"/>
      <point x="379" y="-96"/>
      <point x="349" y="-68"/>
      <point x="296" y="-63" type="curve"/>
      <point x="320" y="-10" type="line"/>
      <point x="476" y="-7"/>
      <point x="584" y="85"/>
      <point x="584" y="218" type="curve" smooth="yes"/>
      <point x="584" y="306"/>
      <point x="528" y="363"/>
      <point x="408" y="394" type="curve" smooth="yes"/>
      <point x="291" y="424" type="line" smooth="yes"/>
      <point x="226" y="441"/>
      <point x="197" y="469"/>
      <point x="197" y="513" type="curve" smooth="yes"/>
      <point x="197" y="572"/>
      <point x="249" y="611"/>
      <point x="329" y="611" type="curve" smooth="yes"/>
      <point x="412" y="611"/>
      <point x="490" y="577"/>
      <point x="553" y="515" type="curve"/>
      <point x="626" y="598" type="line"/>
      <point x="553" y="669"/>
      <point x="448" y="710"/>
      <point x="336" y="710" type="curve" smooth="yes"/>
      <point x="183" y="710"/>
      <point x="83" y="626"/>
      <point x="83" y="498" type="curve" smooth="yes"/>
      <point x="83" y="414"/>
      <point x="136" y="355"/>
      <point x="235" y="328" type="curve" smooth="yes"/>
      <point x="357" y="296" type="line" smooth="yes"/>
      <point x="438" y="273"/>
      <point x="467" y="248"/>
      <point x="467" y="201" type="curve" smooth="yes"/>
      <point x="467" y="135"/>
      <point x="406" y="88"/>
      <point x="320" y="88" type="curve"/>
      <point x="241" y="88"/>
      <point x="169" y="125"/>
      <point x="85" y="208" type="curve"/>
    </contour>
  </outline>
</glyph>
<glyph name="Tcedilla" format="2">
  <advance width="626"/>
  <unicode hex="0162"/>
  <outline>
    <contour>
      <point x="96" y="596" type="line"/>
      <point x="326" y="596" type="line"/>
      <point x="199" y="0" type="line"/>
      <point x="234" y="0" type="line"/>
      <point x="189" y="-103" type="line"/>
      <point x="223" y="-103" type="line" smooth="yes"/>
      <point x="258" y="-103"/>
      <point x="281" y="-119"/>
      <point x="281" y="-144" type="curve" smooth="yes"/>
      <point x="281" y="-173"/>
      <point x="256" y="-192"/>
      <point x="217" y="-192" type="curve" smooth="yes"/>
      <point x="188" y="-192"/>
      <point x="162" y="-180"/>
      <point x="142" y="-159" type="curve"/>
      <point x="101" y="-201" type="line"/>
      <point x="126" y="-230"/>
      <point x="168" y="-245"/>
      <point x="219" y="-245" type="curve" smooth="yes"/>
      <point x="290" y="-245"/>
      <point x="345" y="-198"/>
      <point x="345" y="-137" type="curve" smooth="yes"/>
      <point x="345" y="-96"/>
      <point x="315" y="-68"/>
      <point x="262" y="-63" type="curve"/>
      <point x="290" y="0" type="line"/>
      <point x="317" y="0" type="line"/>
      <point x="444" y="596" type="line"/>
      <point x="672" y="596" type="line"/>
      <point x="695" y="700" type="line"/>
      <point x="119" y="700" type="line"/>
    </contour>
  </outline>
</glyph>
<glyph name="Tbar" format="2">
  <advance width="626"/>
  <unicode hex="0166"/>
  <outline>
    <contour>
      <point x="143" y="383" type="line"/>
      <point x="122" y="293" type="line"/>
      <point x="261" y="293" type="line"/>
      <point x="199" y="0" type="line"/>
      <point x="317" y="0" type="line"/>
      <point x="379" y="293" type="line"/>
      <point x="517" y="293" type="line"/>
      <point x="538" y="383" type="line"/>
      <point x="399" y="383" type="line"/>
      <point x="444" y="596" type="line"/>
      <point x="672" y="596" type="line"/>
      <point x="695" y="700" type="line"/>
      <point x="119" y="700" type="line"/>
      <point x="96" y="596" type="line"/>
      <point x="326" y="596" type="line"/>
      <point x="281" y="383" type="line"/>
    </contour>
  </outline>
</glyph>
<glyph name="dotlessj" format="2">
  <advance width="249"/>
  <unicode hex="0237"/>
  <anchor x="179" y="501" name="top"/>
  <outline>
    <contour>
      <point x="-122" y="-206" type="line"/>
      <point x="-107" y="-212"/>
      <point x="-76" y="-217"/>
      <point x="-53" y="-217" type="curve" smooth="yes"/>
      <point x="32" y="-217"/>
      <point x="91" y="-167"/>
      <point x="110" y="-80" type="curve" smooth="yes"/>
      <point x="235" y="501" type="line"/>
      <point x="123" y="501" type="line"/>
      <point x="1" y="-71" type="line" smooth="yes"/>
      <point x="-7" y="-107"/>
      <point x="-25" y="-122"/>
      <point x="-58" y="-122" type="curve" smooth="yes"/>
      <point x="-77" y="-122"/>
      <point x="-91" y="-120"/>
      <point x="-103" y="-116" type="curve"/>
    </contour>
  </outline>
</glyph>
<glyph name="circumflex" format="2">
  <advance width="512"/>
  <unicode hex="02C6"/>
  <anchor x="311" y="501" name="_top"/>
  <outline>
    <contour>
      <point x="419" y="588" type="line"/>
      <point x="503" y="588" type="line"/>
      <point x="413" y="726" type="line"/>
      <point x="301" y="726" type="line"/>
      <point x="156" y="588" type="line"/>
      <point x="246" y="588" type="line"/>
      <point x="349" y="674" type="line"/>
    </contour>
  </outline>
</glyph>
<glyph name="caron" format="2">
  <advance width="512"/>
  <unicode hex="02C7"/>
  <anchor x="309" y="501" name="_top"/>
  <outline>
    <contour>
      <point x="267" y="730" type="line"/>
      <point x="182" y="730" type="line"/>
      <point x="273" y="592" type="line"/>
      <point x="384" y="592" type="line"/>
      <point x="529" y="730" type="line"/>
      <point x="438" y="730" type="line"/>
      <point x="336" y="645" type="line"/>
    </contour>
  </outline>
</glyph>
<glyph name="breve" format="2">
  <advance width="512"/>
  <unicode hex="02D8"/>
  <anchor x="310" y="501" name="_top"/>
  <outline>
    <contour>
      <point x="338" y="653" type="curve"/>
      <point x="285" y="653"/>
      <point x="255" y="683"/>
      <point x="251" y="743" type="curve"/>
      <point x="185" y="728" type="line"/>
      <point x="188" y="642"/>
      <point x="246" y="588"/>
      <point x="335" y="588" type="curve"/>
      <point x="418" y="588"/>
      <point x="485" y="635"/>
      <point x="521" y="717" type="curve"/>
      <point x="452" y="738" type="line"/>
      <point x="427" y="682"/>
      <point x="387" y="653"/>
    </contour>
  </outline>
</glyph>
<glyph name="ring" format="2">
  <advance width="512"/>
  <unicode hex="02DA"/>
  <anchor x="310" y="501" name="_top"/>
  <outline>
    <contour>
      <point x="337" y="579" type="curve" smooth="yes"/>
      <point x="405" y="579"/>
      <point x="465" y="640"/>
      <point x="465" y="708" type="curve" smooth="yes"/>
      <point x="465" y="768"/>
      <point x="421" y="812"/>
      <point x="359" y="812" type="curve" smooth="yes"/>
      <point x="291" y="812"/>
      <point x="231" y="751"/>
      <point x="231" y="682" type="curve" smooth="yes"/>
      <point x="231" y="622"/>
      <point x="275" y="579"/>
    </contour>
    <contour>
      <point x="340" y="630" type="curve" smooth="yes"/>
      <point x="308" y="630"/>
      <point x="284" y="654"/>
      <point x="284" y="687" type="curve"/>
      <point x="284" y="727"/>
      <point x="317" y="761"/>
      <point x="356" y="761" type="curve" smooth="yes"/>
      <point x="388" y="761"/>
      <point x="412" y="737"/>
      <point x="412" y="704" type="curve" smooth="yes"/>
      <point x="412" y="663"/>
      <point x="379" y="630"/>
    </contour>
  </outline>
</glyph>
<glyph name="tilde" format="2">
  <advance width="512"/>
  <unicode hex="02DC"/>
  <anchor x="306" y="501" name="_top"/>
  <outline>
    <contour>
      <point x="209" y="589" type="line"/>
      <point x="229" y="635"/>
      <point x="244" y="652"/>
      <point x="265" y="652" type="curve"/>
      <point x="306" y="652"/>
      <point x="347" y="586"/>
      <point x="412" y="586" type="curve" smooth="yes"/>
      <point x="456" y="586"/>
      <point x="495" y="624"/>
      <point x="530" y="699" type="curve"/>
      <point x="465" y="721" type="line"/>
      <point x="442" y="671"/>
      <point x="432" y="658"/>
      <point x="414" y="658" type="curve"/>
      <point x="375" y="658"/>
      <point x="329" y="725"/>
      <point x="266" y="725" type="curve" smooth="yes"/>
      <point x="221" y="725"/>
      <point x="180" y="688"/>
      <point x="145" y="611" type="curve"/>
    </contour>
  </outline>
</glyph>
<glyph name="dagger" format="2">
  <advance width="440"/>
  <unicode hex="2020"/>
  <outline>
    <contour>
      <point x="122" y="0" type="line"/>
      <point x="211" y="0" type="line"/>
      <point x="302" y="427" type="line"/>
      <point x="429" y="427" type="line"/>
      <point x="448" y="507" type="line"/>
      <point x="319" y="507" type="line"/>
      <point x="360" y="700" type="line"/>
      <point x="271" y="700" type="line"/>
      <point x="230" y="507" type="line"/>
      <point x="101" y="507" type="line"/>
      <point x="83" y="427" type="line"/>
      <point x="213" y="427" type="line"/>
    </contour>
  </outline>
</glyph>
<glyph name="daggerdbl" format="2">
  <advance width="440"/>
  <unicode hex="2021"/>
  <outline>
    <contour>
      <point x="122" y="0" type="line"/>
      <point x="211" y="0" type="line"/>
      <point x="252" y="193" type="line"/>
      <point x="379" y="193" type="line"/>
      <point x="398" y="274" type="line"/>
      <point x="269" y="274" type="line"/>
      <point x="302" y="427" type="line"/>
      <point x="429" y="427" type="line"/>
      <point x="448" y="507" type="line"/>
      <point x="319" y="507" type="line"/>
      <point x="360" y="700" type="line"/>
      <point x="271" y="700" type="line"/>
      <point x="230" y="507" type="line"/>
      <point x="101" y="507" type="line"/>
      <point x="83" y="427" type="line"/>
      <point x="213" y="427" type="line"/>
      <point x="180" y="274" type="line"/>
      <point x="51" y="274" type="line"/>
      <point x="33" y="193" type="line"/>
      <point x="163" y="193" type="line"/>
    </contour>
  </outline>
</glyph>
<glyph name="guilsinglleft" format="2">
  <advance width="418"/>
  <unicode hex="2039"/>
  <outline>
    <contour>
      <point x="427" y="501" type="line"/>
      <point x="314" y="501" type="line"/>
      <point x="36" y="251" type="line"/>
      <point x="205" y="0" type="line"/>
      <point x="315" y="0" type="line"/>
      <point x="152" y="249" type="line"/>
    </contour>
  </outline>
</glyph>
<glyph name="uni2082" format="2">
  <advance width="298"/>
  <unicode hex="2082"/>
  <outline>
    <contour>
      <point x="-25" y="0" type="line"/>
      <point x="221" y="0" type="line"/>
      <point x="234" y="59" type="line"/>
      <point x="80" y="59" type="line"/>
      <point x="204" y="159" type="line" smooth="yes"/>
      <point x="251" y="195"/>
      <point x="270" y="227"/>
      <point x="270" y="266" type="curve"/>
      <point x="270" y="319"/>
      <point x="224" y="356"/>
      <point x="158" y="356" type="curve" smooth="yes"/>
      <point x="116" y="356"/>
      <point x="72" y="338"/>
      <point x="29" y="306" type="curve"/>
      <point x="57" y="256" type="line"/>
      <point x="92" y="283"/>
      <point x="119" y="294"/>
      <point x="145" y="294" type="curve" smooth="yes"/>
      <point x="179" y="294"/>
      <point x="201" y="277"/>
      <point x="201" y="252" type="curve"/>
      <point x="201" y="232"/>
      <point x="186" y="210"/>
      <point x="157" y="188" type="curve" smooth="yes"/>
      <point x="-14" y="50" type="line"/>
    </contour>
  </outline>
</glyph>
<glyph name="uni2085" format="2">
  <advance width="310"/>
  <unicode hex="2085"/>
  <outline>
    <contour>
      <point x="21" y="174" type="line"/>
      <point x="64" y="156" type="line"/>
      <point x="83" y="164"/>
      <point x="100" y="167"/>
      <point x="121" y="167" type="curve" smooth="yes"/>
      <point x="160" y="167"/>
      <point x="185" y="147"/>
      <point x="185" y="114" type="curve" smooth="yes"/>
      <point x="185" y="80"/>
      <point x="153" y="53"/>
      <point x="113" y="53" type="curve"/>
      <point x="82" y="53"/>
      <point x="57" y="64"/>
      <point x="24" y="91" type="curve"/>
      <point x="-17" y="43" type="line"/>
      <point x="16" y="11"/>
      <point x="58" y="-4"/>
      <point x="112" y="-4" type="curve"/>
      <point x="194" y="-4"/>
      <point x="257" y="52"/>
      <point x="257" y="125" type="curve" smooth="yes"/>
      <point x="257" y="181"/>
      <point x="211" y="219"/>
      <point x="143" y="219" type="curve" smooth="yes"/>
      <point x="126" y="219"/>
      <point x="108" y="216"/>
      <point x="90" y="209" type="curve"/>
      <point x="111" y="292" type="line"/>
      <point x="275" y="292" type="line"/>
      <point x="287" y="350" type="line"/>
      <point x="65" y="350" type="line"/>
    </contour>
  </outline>
</glyph>
<glyph name="uni2086" format="2">
  <advance width="330"/>
  <unicode hex="2086"/>
  <outline>
    <contour>
      <point x="136" y="-5" type="curve"/>
      <point x="212" y="-5"/>
      <point x="274" y="52"/>
      <point x="274" y="122" type="curve" smooth="yes"/>
      <point x="274" y="175"/>
      <point x="233" y="213"/>
      <point x="175" y="213" type="curve"/>
      <point x="139" y="213"/>
      <point x="104" y="197"/>
      <point x="78" y="172" type="curve"/>
      <point x="91" y="242"/>
      <point x="137" y="293"/>
      <point x="192" y="293" type="curve"/>
      <point x="216" y="293"/>
      <point x="241" y="283"/>
      <point x="263" y="266" type="curve"/>
      <point x="303" y="318" type="line"/>
      <point x="272" y="343"/>
      <point x="241" y="354"/>
      <point x="203" y="354" type="curve"/>
      <point x="95" y="354"/>
      <point x="7" y="255"/>
      <point x="7" y="136" type="curve" smooth="yes"/>
      <point x="7" y="49"/>
      <point x="57" y="-5"/>
    </contour>
    <contour>
      <point x="148" y="162" type="curve"/>
      <point x="183" y="162"/>
      <point x="206" y="142"/>
      <point x="206" y="113" type="curve" smooth="yes"/>
      <point x="206" y="81"/>
      <point x="178" y="55"/>
      <point x="143" y="55" type="curve"/>
      <point x="101" y="55"/>
      <point x="76" y="85"/>
      <point x="75" y="133" type="curve"/>
      <point x="98" y="152"/>
      <point x="122" y="162"/>
    </contour>
  </outline>
</glyph>
<glyph name="Euro" format="2">
  <advance width="722"/>
  <unicode hex="20AC"/>
  <outline>
    <contour>
      <point x="454" y="316" type="line"/>
      <point x="238" y="316" type="line"/>
      <point x="239" y="340"/>
      <point x="242" y="363"/>
      <point x="247" y="385" type="curve"/>
      <point x="491" y="385" type="line"/>
      <point x="527" y="449" type="line"/>
      <point x="268" y="449" type="line"/>
      <point x="311" y="549"/>
      <point x="393" y="616"/>
      <point x="489" y="616" type="curve"/>
      <point x="559" y="616"/>
      <point x="621" y="577"/>
      <point x="652" y="511" type="curve"/>
      <point x="735" y="564" type="line"/>
      <point x="692" y="658"/>
      <point x="609" y="710"/>
      <point x="500" y="710" type="curve" smooth="yes"/>
      <point x="347" y="710"/>
      <point x="217" y="603"/>
      <point x="163" y="449" type="curve"/>
      <point x="82" y="449" type="line"/>
      <point x="68" y="385" type="line"/>
      <point x="146" y="385" type="line"/>
      <point x="141" y="363"/>
      <point x="138" y="340"/>
      <point x="137" y="316" type="curve"/>
      <point x="53" y="316" type="line"/>
      <point x="40" y="253" type="line"/>
      <point x="137" y="253" type="line"/>
      <point x="150" y="93"/>
      <point x="252" y="-10"/>
      <point x="403" y="-10" type="curve" smooth="yes"/>
      <point x="489" y="-10"/>
      <point x="570" y="28"/>
      <point x="639" y="100" type="curve"/>
      <point x="578" y="162" type="line"/>
      <point x="530" y="112"/>
      <point x="471" y="84"/>
      <point x="414" y="84" type="curve" smooth="yes"/>
      <point x="317" y="84"/>
      <point x="252" y="149"/>
      <point x="239" y="253" type="curve"/>
      <point x="418" y="253" type="line"/>
    </contour>
  </outline>
</glyph>
<glyph name="notequal" format="2">
  <advance width="534"/>
  <unicode hex="2260"/>
  <outline>
    <contour>
      <point x="36" y="104" type="line"/>
      <point x="122" y="104" type="line"/>
      <point x="218" y="220" type="line"/>
      <point x="464" y="220" type="line"/>
      <point x="483" y="309" type="line"/>
      <point x="292" y="309" type="line"/>
      <point x="367" y="400" type="line"/>
      <point x="503" y="400" type="line"/>
      <point x="522" y="489" type="line"/>
      <point x="441" y="489" type="line"/>
      <point x="536" y="604" type="line"/>
      <point x="451" y="604" type="line"/>
      <point x="356" y="489" type="line"/>
      <point x="110" y="489" type="line"/>
      <point x="91" y="400" type="line"/>
      <point x="282" y="400" type="line"/>
      <point x="206" y="309" type="line"/>
      <point x="72" y="309" type="line"/>
      <point x="53" y="220" type="line"/>
      <point x="132" y="220" type="line"/>
    </contour>
  </outline>
</glyph>
<glyph name="a.school" format="2">
  <advance width="596"/>
  <anchor x="333" y="501" name="top"/>
  <anchor x="474" y="0" name="bottom"/>
  <outline>
    <contour>
      <point x="364" y="0" type="line"/>
      <point x="474" y="0" type="line"/>
      <point x="583" y="501" type="line"/>
      <point x="472" y="501" type="line"/>
      <point x="455" y="425" type="line"/>
      <point x="422" y="476"/>
      <point x="368" y="505"/>
      <point x="302" y="505" type="curve"/>
      <point x="161" y="505"/>
      <point x="46" y="378"/>
      <point x="46" y="223" type="curve" smooth="yes"/>
      <point x="46" y="94"/>
      <point x="130" y="-5"/>
      <point x="241" y="-5" type="curve"/>
      <point x="292" y="-5"/>
      <point x="339" y="14"/>
      <point x="375" y="48" type="curve"/>
    </contour>
    <contour>
      <point x="156" y="232" type="curve" smooth="yes"/>
      <point x="156" y="332"/>
      <point x="227" y="409"/>
      <point x="319" y="409" type="curve"/>
      <point x="368" y="409"/>
      <point x="414" y="386"/>
      <point x="439" y="349" type="curve"/>
      <point x="391" y="131" type="line"/>
      <point x="361" y="103"/>
      <point x="325" y="89"/>
      <point x="286" y="89" type="curve"/>
      <point x="210" y="89"/>
      <point x="156" y="148"/>
    </contour>
  </outline>
</glyph>
<glyph name="aogonek" format="2">
  <advance width="541"/>
  <outline>
    <contour>
      <point x="185" y="-6" type="curve" smooth="yes"/>
      <point x="232" y="-6"/>
      <point x="274" y="9"/>
      <point x="322" y="45" type="curve"/>
      <point x="312" y="0" type="line"/>
      <point x="352" y="0" type="line"/>
      <point x="272" y="-48"/>
      <point x="233" y="-98"/>
      <point x="233" y="-153" type="curve"/>
      <point x="233" y="-201"/>
      <point x="270" y="-231"/>
      <point x="325" y="-231" type="curve"/>
      <point x="354" y="-231"/>
      <point x="383" y="-225"/>
      <point x="404" y="-213" type="curve"/>
      <point x="400" y="-160" type="line"/>
      <point x="388" y="-166"/>
      <point x="370" y="-170"/>
      <point x="354" y="-170" type="curve"/>
      <point x="323" y="-170"/>
      <point x="303" y="-153"/>
      <point x="303" y="-127" type="curve"/>
      <point x="303" y="-85"/>
      <point x="341" y="-43"/>
      <point x="422" y="0" type="curve"/>
      <point x="489" y="304" type="line" smooth="yes"/>
      <point x="516" y="430"/>
      <point x="444" y="508"/>
      <point x="298" y="508" type="curve" smooth="yes"/>
      <point x="241" y="508"/>
      <point x="180" y="494"/>
      <point x="108" y="467" type="curve"/>
      <point x="135" y="384" type="line"/>
      <point x="192" y="406"/>
      <point x="234" y="415"/>
      <point x="271" y="415" type="curve" smooth="yes"/>
      <point x="359" y="415"/>
      <point x="395" y="377"/>
      <point x="378" y="300" type="curve" smooth="yes"/>
      <point x="369" y="258" type="line"/>
      <point x="327" y="280"/>
      <point x="275" y="293"/>
      <point x="221" y="293" type="curve" smooth="yes"/>
      <point x="101" y="293"/>
      <point x="24" y="230"/>
      <point x="24" y="132" type="curve" smooth="yes"/>
      <point x="24" y="48"/>
      <point x="87" y="-6"/>
    </contour>
    <contour>
      <point x="128" y="142" type="curve" smooth="yes"/>
      <point x="128" y="189"/>
      <point x="170" y="220"/>
      <point x="235" y="220" type="curve" smooth="yes"/>
      <point x="282" y="220"/>
      <point x="323" y="212"/>
      <point x="355" y="194" type="curve"/>
      <point x="336" y="109" type="line"/>
      <point x="301" y="84"/>
      <point x="265" y="73"/>
      <point x="225" y="73" type="curve" smooth="yes"/>
      <point x="163" y="73"/>
      <point x="128" y="98"/>
    </contour>
  </outline>
</glyph>
<glyph name="aogonek.school" format="2">
  <advance width="596"/>
  <outline>
    <contour>
      <point x="364" y="0" type="line"/>
      <point x="404" y="0" type="line"/>
      <point x="324" y="-48"/>
      <point x="285" y="-98"/>
      <point x="285" y="-153" type="curve"/>
      <point x="285" y="-201"/>
      <point x="322" y="-231"/>
      <point x="377" y="-231" type="curve"/>
      <point x="406" y="-231"/>
      <point x="435" y="-225"/>
      <point x="456" y="-213" type="curve"/>
      <point x="452" y="-160" type="line"/>
      <point x="440" y="-166"/>
      <point x="422" y="-170"/>
      <point x="406" y="-170" type="curve"/>
      <point x="375" y="-170"/>
      <point x="355" y="-153"/>
      <point x="355" y="-127" type="curve"/>
      <point x="355" y="-85"/>
      <point x="393" y="-43"/>
      <point x="474" y="0" type="curve"/>
      <point x="583" y="501" type="line"/>
      <point x="472" y="501" type="line"/>
      <point x="455" y="425" type="line"/>
      <point x="422" y="476"/>
      <point x="368" y="505"/>
      <point x="302" y="505" type="curve"/>
      <point x="161" y="505"/>
      <point x="46" y="378"/>
      <point x="46" y="223" type="curve" smooth="yes"/>
      <point x="46" y="94"/>
      <point x="130" y="-5"/>
      <point x="241" y="-5" type="curve"/>
      <point x="292" y="-5"/>
      <point x="339" y="14"/>
      <point x="375" y="48" type="curve"/>
    </contour>
    <contour>
      <point x="156" y="232" type="curve" smooth="yes"/>
      <point x="156" y="332"/>
      <point x="227" y="409"/>
      <point x="319" y="409" type="curve"/>
      <point x="368" y="409"/>
      <point x="414" y="386"/>
      <point x="439" y="349" type="curve"/>
      <point x="391" y="131" type="line"/>
      <point x="361" y="103"/>
      <point x="325" y="89"/>
      <point x="286" y="89" type="curve"/>
      <point x="210" y="89"/>
      <point x="156" y="148"/>
    </contour>
  </outline>
</glyph>
<glyph name="ccedilla" format="2">
  <advance width="511"/>
  <outline>
    <contour>
      <point x="285" y="89" type="curve" smooth="yes"/>
      <point x="210" y="89"/>
      <point x="156" y="145"/>
      <point x="156" y="226" type="curve" smooth="yes"/>
      <point x="156" y="325"/>
      <point x="228" y="408"/>
      <point x="315" y="408" type="curve" smooth="yes"/>
      <point x="367" y="408"/>
      <point x="408" y="386"/>
      <point x="436" y="341" type="curve"/>
      <point x="516" y="407" type="line"/>
      <point x="475" y="470"/>
      <point x="400" y="508"/>
      <point x="318" y="508" type="curve" smooth="yes"/>
      <point x="168" y="508"/>
      <point x="45" y="377"/>
      <point x="45" y="217" type="curve" smooth="yes"/>
      <point x="45" y="98"/>
      <point x="122" y="8"/>
      <point x="232" y="-7" type="curve"/>
      <point x="190" y="-103" type="line"/>
      <point x="224" y="-103" type="line" smooth="yes"/>
      <point x="259" y="-103"/>
      <point x="282" y="-119"/>
      <point x="282" y="-144" type="curve" smooth="yes"/>
      <point x="282" y="-173"/>
      <point x="257" y="-192"/>
      <point x="218" y="-192" type="curve" smooth="yes"/>
      <point x="189" y="-192"/>
      <point x="163" y="-180"/>
      <point x="143" y="-159" type="curve"/>
      <point x="102" y="-201" type="line"/>
      <point x="127" y="-230"/>
      <point x="169" y="-245"/>
      <point x="220" y="-245" type="curve" smooth="yes"/>
      <point x="291" y="-245"/>
      <point x="346" y="-198"/>
      <point x="346" y="-137" type="curve" smooth="yes"/>
      <point x="346" y="-96"/>
      <point x="316" y="-68"/>
      <point x="263" y="-63" type="curve"/>
      <point x="287" y="-9" type="line"/>
      <point x="349" y="-5"/>
      <point x="408" y="20"/>
      <point x="455" y="63" type="curve"/>
      <point x="401" y="134" type="line"/>
      <point x="368" y="104"/>
      <point x="328" y="89"/>
    </contour>
  </outline>
</glyph>
<glyph name="commaaccent" format="2">
  <advance width="265"/>
  <anchor x="75" y="0" name="_bottom"/>
  <outline>
    <contour>
      <point x="19" y="-88" type="line"/>
      <point x="-77" y="-288" type="line"/>
      <point x="2" y="-288" type="line"/>
      <point x="123" y="-88" type="line"/>
    </contour>
  </outline>
</glyph>
<glyph name="eogonek" format="2">
  <advance width="562"/>
  <outline>
    <contour>
      <point x="342" y="-213" type="curve"/>
      <point x="338" y="-160" type="line"/>
      <point x="326" y="-166"/>
      <point x="308" y="-170"/>
      <point x="292" y="-170" type="curve"/>
      <point x="261" y="-170"/>
      <point x="241" y="-153"/>
      <point x="241" y="-127" type="curve"/>
      <point x="241" y="-85"/>
      <point x="279" y="-43"/>
      <point x="359" y="0" type="curve"/>
      <point x="395" y="9"/>
      <point x="429" y="26"/>
      <point x="465" y="51" type="curve"/>
      <point x="404" y="125" type="line"/>
      <point x="375" y="98"/>
      <point x="333" y="84"/>
      <point x="290" y="84" type="curve" smooth="yes"/>
      <point x="212" y="84"/>
      <point x="155" y="142"/>
      <point x="153" y="223" type="curve"/>
      <point x="514" y="223" type="line"/>
      <point x="517" y="243"/>
      <point x="518" y="262"/>
      <point x="518" y="287" type="curve" smooth="yes"/>
      <point x="518" y="417"/>
      <point x="433" y="508"/>
      <point x="309" y="508" type="curve" smooth="yes"/>
      <point x="164" y="508"/>
      <point x="45" y="379"/>
      <point x="45" y="223" type="curve" smooth="yes"/>
      <point x="45" y="88"/>
      <point x="140" y="-7"/>
      <point x="274" y="-10" type="curve"/>
      <point x="205" y="-55"/>
      <point x="171" y="-102"/>
      <point x="171" y="-153" type="curve"/>
      <point x="171" y="-201"/>
      <point x="208" y="-231"/>
      <point x="263" y="-231" type="curve"/>
      <point x="292" y="-231"/>
      <point x="321" y="-225"/>
    </contour>
    <contour>
      <point x="303" y="415" type="curve" smooth="yes"/>
      <point x="367" y="415"/>
      <point x="413" y="365"/>
      <point x="418" y="292" type="curve"/>
      <point x="162" y="292" type="line"/>
      <point x="182" y="365"/>
      <point x="236" y="415"/>
    </contour>
  </outline>
</glyph>
<glyph name="g.alt" format="2">
  <advance width="571"/>
  <note>
Version created Sun Jan 13 16:53:00 2019
</note>
  <anchor x="312" y="500" name="top"/>
  <outline>
    <contour>
      <point x="73" y="306" type="curve" smooth="yes"/>
      <point x="73" y="248"/>
      <point x="106" y="198"/>
      <point x="158" y="168" type="curve"/>
      <point x="88" y="157"/>
      <point x="39" y="115"/>
      <point x="39" y="62" type="curve"/>
      <point x="39" y="33"/>
      <point x="55" y="11"/>
      <point x="85" y="-4" type="curve"/>
      <point x="6" y="-18"/>
      <point x="-39" y="-51"/>
      <point x="-39" y="-98" type="curve" smooth="yes"/>
      <point x="-39" y="-168"/>
      <point x="65" y="-213"/>
      <point x="225" y="-213" type="curve" smooth="yes"/>
      <point x="387" y="-213"/>
      <point x="493" y="-147"/>
      <point x="493" y="-48" type="curve" smooth="yes"/>
      <point x="493" y="8"/>
      <point x="449" y="43"/>
      <point x="367" y="53" type="curve" smooth="yes"/>
      <point x="186" y="74" type="line" smooth="yes"/>
      <point x="154" y="78"/>
      <point x="138" y="89"/>
      <point x="138" y="107" type="curve" smooth="yes"/>
      <point x="138" y="129"/>
      <point x="159" y="147"/>
      <point x="190" y="153" type="curve"/>
      <point x="216" y="144"/>
      <point x="244" y="139"/>
      <point x="275" y="139" type="curve" smooth="yes"/>
      <point x="406" y="139"/>
      <point x="509" y="229"/>
      <point x="509" y="341" type="curve" smooth="yes"/>
      <point x="509" y="368"/>
      <point x="502" y="393"/>
      <point x="489" y="415" type="curve"/>
      <point x="505" y="431"/>
      <point x="526" y="440"/>
      <point x="551" y="440" type="curve" smooth="yes"/>
      <point x="571" y="440"/>
      <point x="591" y="436"/>
      <point x="606" y="431" type="curve"/>
      <point x="625" y="525" type="line"/>
      <point x="612" y="530"/>
      <point x="601" y="531"/>
      <point x="589" y="531" type="curve" smooth="yes"/>
      <point x="538" y="531"/>
      <point x="498" y="499"/>
      <point x="473" y="439" type="curve"/>
      <point x="437" y="481"/>
      <point x="377" y="508"/>
      <point x="307" y="508" type="curve" smooth="yes"/>
      <point x="180" y="508"/>
      <point x="73" y="416"/>
    </contour>
    <contour>
      <point x="403" y="334" type="curve" smooth="yes"/>
      <point x="403" y="270"/>
      <point x="347" y="218"/>
      <point x="280" y="218" type="curve" smooth="yes"/>
      <point x="221" y="218"/>
      <point x="179" y="257"/>
      <point x="179" y="312" type="curve" smooth="yes"/>
      <point x="179" y="375"/>
      <point x="234" y="427"/>
      <point x="303" y="427" type="curve" smooth="yes"/>
      <point x="361" y="427"/>
      <point x="403" y="387"/>
    </contour>
    <contour>
      <point x="65" y="-74" type="curve"/>
      <point x="65" y="-48"/>
      <point x="87" y="-28"/>
      <point x="123" y="-18" type="curve"/>
      <point x="135" y="-21"/>
      <point x="150" y="-23"/>
      <point x="165" y="-25" type="curve" smooth="yes"/>
      <point x="332" y="-43" type="line" smooth="yes"/>
      <point x="362" y="-48"/>
      <point x="377" y="-59"/>
      <point x="377" y="-77" type="curve" smooth="yes"/>
      <point x="377" y="-115"/>
      <point x="318" y="-140"/>
      <point x="232" y="-140" type="curve" smooth="yes"/>
      <point x="128" y="-140"/>
      <point x="65" y="-115"/>
    </contour>
  </outline>
</glyph>
<glyph name="reversequotedblleft" format="2">
  <advance width="426"/>
  <outline>
    <contour>
      <point x="190" y="750" type="line"/>
      <point x="76" y="750" type="line"/>
      <point x="140" y="486" type="line"/>
      <point x="223" y="486" type="line"/>
    </contour>
    <contour>
      <point x="382" y="750" type="line"/>
      <point x="267" y="750" type="line"/>
      <point x="332" y="486" type="line"/>
      <point x="415" y="486" type="line"/>
    </contour>
  </outline>
</glyph>
<glyph name="scedilla" format="2">
  <advance width="471"/>
  <outline>
    <contour>
      <point x="-3" y="73" type="line"/>
      <point x="42" y="29"/>
      <point x="105" y="0"/>
      <point x="174" y="-8" type="curve"/>
      <point x="133" y="-103" type="line"/>
      <point x="167" y="-103" type="line" smooth="yes"/>
      <point x="202" y="-103"/>
      <point x="225" y="-119"/>
      <point x="225" y="-144" type="curve" smooth="yes"/>
      <point x="225" y="-173"/>
      <point x="200" y="-192"/>
      <point x="161" y="-192" type="curve" smooth="yes"/>
      <point x="132" y="-192"/>
      <point x="106" y="-180"/>
      <point x="86" y="-159" type="curve"/>
      <point x="45" y="-201" type="line"/>
      <point x="70" y="-230"/>
      <point x="112" y="-245"/>
      <point x="163" y="-245" type="curve" smooth="yes"/>
      <point x="234" y="-245"/>
      <point x="289" y="-198"/>
      <point x="289" y="-137" type="curve" smooth="yes"/>
      <point x="289" y="-96"/>
      <point x="259" y="-68"/>
      <point x="206" y="-63" type="curve"/>
      <point x="229" y="-11" type="line"/>
      <point x="338" y="-7"/>
      <point x="418" y="66"/>
      <point x="418" y="161" type="curve" smooth="yes"/>
      <point x="418" y="224"/>
      <point x="378" y="264"/>
      <point x="295" y="287" type="curve" smooth="yes"/>
      <point x="210" y="310" type="line" smooth="yes"/>
      <point x="167" y="322"/>
      <point x="152" y="336"/>
      <point x="152" y="365" type="curve" smooth="yes"/>
      <point x="152" y="401"/>
      <point x="183" y="424"/>
      <point x="234" y="424" type="curve" smooth="yes"/>
      <point x="281" y="424"/>
      <point x="334" y="403"/>
      <point x="383" y="365" type="curve"/>
      <point x="445" y="435" type="line"/>
      <point x="385" y="484"/>
      <point x="316" y="509"/>
      <point x="241" y="509" type="curve" smooth="yes"/>
      <point x="126" y="509"/>
      <point x="53" y="448"/>
      <point x="53" y="351" type="curve" smooth="yes"/>
      <point x="53" y="286"/>
      <point x="92" y="242"/>
      <point x="170" y="221" type="curve" smooth="yes"/>
      <point x="255" y="198" type="line" smooth="yes"/>
      <point x="297" y="187"/>
      <point x="314" y="171"/>
      <point x="314" y="145" type="curve" smooth="yes"/>
      <point x="314" y="106"/>
      <point x="274" y="76"/>
      <point x="221" y="76" type="curve" smooth="yes"/>
      <point x="166" y="76"/>
      <point x="123" y="94"/>
      <point x="59" y="145" type="curve"/>
    </contour>
  </outline>
</glyph>
<glyph name="tcedilla" format="2">
  <advance width="406"/>
  <outline>
    <contour>
      <point x="106" y="140" type="line"/>
      <point x="88" y="60"/>
      <point x="119" y="10"/>
      <point x="191" y="-4" type="curve"/>
      <point x="148" y="-103" type="line"/>
      <point x="182" y="-103" type="line" smooth="yes"/>
      <point x="217" y="-103"/>
      <point x="240" y="-119"/>
      <point x="240" y="-144" type="curve" smooth="yes"/>
      <point x="240" y="-173"/>
      <point x="215" y="-192"/>
      <point x="176" y="-192" type="curve" smooth="yes"/>
      <point x="147" y="-192"/>
      <point x="121" y="-180"/>
      <point x="101" y="-159" type="curve"/>
      <point x="60" y="-201" type="line"/>
      <point x="85" y="-230"/>
      <point x="127" y="-245"/>
      <point x="178" y="-245" type="curve" smooth="yes"/>
      <point x="249" y="-245"/>
      <point x="304" y="-198"/>
      <point x="304" y="-137" type="curve" smooth="yes"/>
      <point x="304" y="-96"/>
      <point x="274" y="-68"/>
      <point x="221" y="-63" type="curve"/>
      <point x="246" y="-8" type="line"/>
      <point x="272" y="-7"/>
      <point x="300" y="-3"/>
      <point x="321" y="2" type="curve"/>
      <point x="341" y="96" type="line"/>
      <point x="311" y="89"/>
      <point x="300" y="88"/>
      <point x="284" y="88" type="curve" smooth="yes"/>
      <point x="227" y="88"/>
      <point x="209" y="108"/>
      <point x="221" y="160" type="curve" smooth="yes"/>
      <point x="275" y="411" type="line"/>
      <point x="411" y="411" type="line"/>
      <point x="431" y="501" type="line"/>
      <point x="294" y="501" type="line"/>
      <point x="329" y="663" type="line"/>
      <point x="212" y="639" type="line"/>
      <point x="183" y="501" type="line"/>
      <point x="86" y="501" type="line"/>
      <point x="66" y="411" type="line"/>
      <point x="164" y="411" type="line"/>
    </contour>
  </outline>
</glyph>
<glyph name="uogonek" format="2">
  <advance width="570"/>
  <outline>
    <contour>
      <point x="447" y="0" type="curve"/>
      <point x="556" y="501" type="line"/>
      <point x="444" y="501" type="line"/>
      <point x="366" y="138" type="line"/>
      <point x="333" y="101"/>
      <point x="295" y="83"/>
      <point x="254" y="83" type="curve" smooth="yes"/>
      <point x="185" y="83"/>
      <point x="150" y="134"/>
      <point x="167" y="210" type="curve" smooth="yes"/>
      <point x="230" y="501" type="line"/>
      <point x="119" y="501" type="line"/>
      <point x="51" y="184" type="line" smooth="yes"/>
      <point x="27" y="74"/>
      <point x="86" y="-6"/>
      <point x="191" y="-6" type="curve" smooth="yes"/>
      <point x="252" y="-6"/>
      <point x="306" y="22"/>
      <point x="352" y="76" type="curve"/>
      <point x="336" y="0" type="line"/>
      <point x="377" y="0" type="line"/>
      <point x="297" y="-48"/>
      <point x="258" y="-98"/>
      <point x="258" y="-153" type="curve"/>
      <point x="258" y="-201"/>
      <point x="295" y="-231"/>
      <point x="350" y="-231" type="curve"/>
      <point x="379" y="-231"/>
      <point x="408" y="-225"/>
      <point x="429" y="-213" type="curve"/>
      <point x="425" y="-160" type="line"/>
      <point x="413" y="-166"/>
      <point x="395" y="-170"/>
      <point x="379" y="-170" type="curve"/>
      <point x="348" y="-170"/>
      <point x="328" y="-153"/>
      <point x="328" y="-127" type="curve"/>
      <point x="328" y="-85"/>
      <point x="366" y="-43"/>
    </contour>
  </outline>
</glyph>
